<svg width="57" height="56" viewBox="0 0 57 56" fill="none" xmlns="http://www.w3.org/2000/svg">
<rect x="1" y="0.5" width="55" height="55" rx="27.5" stroke="#C9C7C5"/>
<path fill-rule="evenodd" clip-rule="evenodd" d="M31.9159 17.9055C32.8343 16.7199 33.5306 15.0441 33.2788 13.3335C31.7776 13.4378 30.0229 14.3983 28.9991 15.6501C28.0658 16.7845 27.2988 18.4718 27.5984 20.1096C29.2394 20.1609 30.9332 19.1773 31.9159 17.9055ZM40.0278 33.9964C39.371 35.4602 39.055 36.1143 38.2089 37.4109C37.0287 39.2208 35.3646 41.4746 33.3005 41.4911C31.4685 41.511 30.9961 40.2906 28.509 40.3055C26.0218 40.3187 25.5033 41.5143 23.668 41.4961C21.6056 41.4779 20.0287 39.4444 18.8485 37.6345C15.5466 32.5772 15.1993 26.6407 17.2354 23.4829C18.6839 21.2408 20.9685 19.9293 23.115 19.9293C25.2992 19.9293 26.6736 21.1348 28.4826 21.1348C30.2373 21.1348 31.3055 19.9259 33.8322 19.9259C35.7448 19.9259 37.7711 20.9741 39.213 22.7824C34.4856 25.3889 35.251 32.1798 40.0278 33.9964Z" fill="#3F3C36"/>
</svg>
