<svg width="24" height="24" viewBox="0 0 24 24" fill="none" xmlns="http://www.w3.org/2000/svg">
<path d="M9 9L15 15" stroke="#4F3422" stroke-width="2"/>
<path d="M4 4L5 5" stroke="#4F3422" stroke-width="2"/>
<path d="M19 19L20 20" stroke="#4F3422" stroke-width="2"/>
<path d="M7.50023 3.49996L3.50022 7.49983C2.67174 8.32828 2.67173 9.67149 3.50019 10.5C4.32865 11.3284 5.67184 11.3284 6.50029 10.5L8.50024 8.5L10.5002 6.50001C11.3287 5.67158 11.3287 4.32842 10.5002 3.49999C9.67181 2.67156 8.32867 2.67155 7.50023 3.49996Z" stroke="#4F3422" stroke-width="2"/>
<path d="M16.5003 20.5L20.5002 16.5C21.3287 15.6716 21.3287 14.3284 20.5002 13.5C19.6718 12.6716 18.3287 12.6715 17.5002 13.5L13.5002 17.4998C12.6717 18.3283 12.6717 19.6715 13.5002 20.5C14.3286 21.3284 15.6718 21.3284 16.5003 20.5Z" stroke="#4F3422" stroke-width="2"/>
</svg>
