<svg width="24" height="24" viewBox="0 0 24 24" fill="none" xmlns="http://www.w3.org/2000/svg">
<path fill-rule="evenodd" clip-rule="evenodd" d="M17.2248 18.6391L20.2929 21.7072L21.7071 20.293L3.70711 2.29297L2.29289 3.70718L4.90669 6.32098C3.14593 7.59232 2 9.66237 2 12.0001C2 15.8661 5.13401 19.0001 9 19.0001H15C15.7778 19.0001 16.5259 18.8732 17.2248 18.6391ZM15.5553 16.9696L14.032 15.4463C13.4365 15.7981 12.7418 16.0001 12 16.0001C9.79086 16.0001 8 14.2092 8 12.0001C8 11.2583 8.20193 10.5636 8.55382 9.96811L6.34693 7.76122C4.93725 8.6454 4 10.2133 4 12.0001C4 14.7615 6.23858 17.0001 9 17.0001H15C15.1877 17.0001 15.373 16.9897 15.5553 16.9696ZM10.0677 11.482C10.0236 11.6473 10 11.8209 10 12.0001C10 13.1046 10.8954 14.0001 12 14.0001C12.1792 14.0001 12.3528 13.9765 12.518 13.9323L10.0677 11.482ZM22 12.0001C22 13.8277 21.2996 15.4917 20.1525 16.7384L18.7366 15.3225C19.5225 14.4392 20 13.2754 20 12.0001C20 9.23865 17.7614 7.00008 15 7.00008H10.4142L8.43656 5.02242C8.62242 5.00762 8.81033 5.00008 9 5.00008H15C18.866 5.00008 22 8.13408 22 12.0001ZM16 12.0001C16 12.1861 15.9873 12.3693 15.9627 12.5486L11.4515 8.03737C11.6308 8.01278 11.8139 8.00008 12 8.00008C14.2091 8.00008 16 9.79094 16 12.0001Z" fill="#4F3422"/>
</svg>
