<svg width="57" height="56" viewBox="0 0 57 56" fill="none" xmlns="http://www.w3.org/2000/svg">
<rect x="1" y="0.5" width="55" height="55" rx="27.5" stroke="#C9C7C5"/>
<path fill-rule="evenodd" clip-rule="evenodd" d="M29.0003 19.8221C31.504 19.8221 33.1929 20.9035 34.1559 21.8072L37.9188 18.1332C35.6077 15.985 32.6003 14.6665 29.0003 14.6665C23.7855 14.6665 19.2818 17.6591 17.0892 22.0147L21.4003 25.3628C22.4818 22.148 25.4744 19.8221 29.0003 19.8221Z" fill="#3F3C36"/>
<path fill-rule="evenodd" clip-rule="evenodd" d="M41.8 28.2962C41.8 27.1999 41.7111 26.3999 41.5185 25.5703H29V30.5185H36.3481C36.2 31.7481 35.4 33.5999 33.6222 34.8444L37.8296 38.1036C40.3481 35.7777 41.8 32.3555 41.8 28.2962Z" fill="#5A554E"/>
<path fill-rule="evenodd" clip-rule="evenodd" d="M21.4148 30.6374C21.1333 29.8077 20.9704 28.9188 20.9704 28.0003C20.9704 27.0818 21.1333 26.1929 21.4 25.3633L17.0889 22.0151C16.1852 23.8225 15.6667 25.8522 15.6667 28.0003C15.6667 30.1485 16.1852 32.1781 17.0889 33.9855L21.4148 30.6374Z" fill="#736B66"/>
<path fill-rule="evenodd" clip-rule="evenodd" d="M29.0007 41.3335C32.6007 41.3335 35.6229 40.1483 37.8303 38.1039L33.6229 34.8446C32.497 35.6298 30.9859 36.1779 29.0007 36.1779C25.4748 36.1779 22.4822 33.852 21.4155 30.6372L17.1044 33.9854C19.297 38.3409 23.7859 41.3335 29.0007 41.3335Z" fill="#3F3C36"/>
</svg>
