<svg width="24" height="24" viewBox="0 0 24 24" fill="none" xmlns="http://www.w3.org/2000/svg">
<path d="M10.184 3.93721C10.8989 2.38747 13.1014 2.38747 13.8163 3.93721L15.199 6.93503C15.4904 7.56664 16.0889 8.00153 16.7797 8.08343L20.058 8.47213C21.7528 8.67308 22.4335 10.7678 21.1805 11.9266L18.7567 14.1681C18.246 14.6403 18.0174 15.344 18.1529 16.0262L18.7963 19.2642C19.1289 20.9382 17.347 22.2328 15.8578 21.3992L12.977 19.7867C12.3701 19.447 11.6302 19.447 11.0233 19.7867L8.14251 21.3992C6.65328 22.2328 4.87137 20.9382 5.20397 19.2642L5.84737 16.0262C5.98293 15.344 5.7543 14.6403 5.24362 14.1681L2.81982 11.9266C1.56682 10.7678 2.24746 8.67308 3.94224 8.47213L7.22064 8.08343C7.91136 8.00153 8.50994 7.56664 8.80127 6.93503L10.184 3.93721Z" stroke="#4F3422" stroke-width="2" stroke-linejoin="round"/>
</svg>
