<svg width="375" height="461" viewBox="0 0 375 461" fill="none" xmlns="http://www.w3.org/2000/svg">
<path d="M120.609 219.536C113.114 217.844 106.722 216.537 105.31 216.435C89.934 215.256 74.301 216.896 59.6178 221.765C-21.0113 248.623 -13.2333 355.209 1.21885 421.354C1.75791 423.789 5.94211 445.598 7.79035 445.675C7.79035 445.675 41.7773 447.161 88.5992 449.212C89.4976 371.56 93.5534 293.677 120.609 219.536Z" fill="#EF8834"/>
<path d="M249.062 256.081C241.592 263.256 233.403 269.766 224.495 275.071C207.117 285.424 183.141 290.678 163.504 288.474C134.497 285.245 136.268 248.008 148.821 227.326C149.411 226.378 133.419 222.38 120.584 219.51C93.5534 293.676 89.4976 371.559 88.5991 449.211C125.974 450.851 171.513 452.825 214.51 454.721C231.041 386.782 247.29 318.868 255.325 249.187C252.347 252.544 249.883 255.312 249.062 256.081Z" fill="white"/>
<path d="M399.154 313.307C399.205 295.65 396.176 276.762 389.604 260.335C370.429 212.411 306.254 192.549 269.187 233.195C268.571 233.887 261.05 242.626 255.325 249.161C247.29 318.868 231.041 386.782 214.51 454.695C290.801 458.027 359.006 461 359.031 461C359.442 461 368.427 435.987 369.556 433.399C374.51 421.994 378.926 410.359 382.776 398.519C389.964 376.403 395.868 353.005 398.281 329.837C398.82 324.481 399.128 318.945 399.154 313.307Z" fill="#EF8834"/>
<path d="M116.682 129.813C117.76 132.734 118.838 135.63 119.942 138.552C120.456 139.961 122.74 139.346 122.201 137.937C121.123 135.015 120.045 132.119 118.941 129.198C118.428 127.788 116.169 128.378 116.682 129.813Z" fill="#4F3422"/>
<path d="M139.965 268.279C142.583 285.552 159.397 290.217 174.747 289.73C194.154 289.089 212.97 282.81 229.116 272.175C236.843 267.075 243.979 261.104 250.551 254.62C252.707 252.493 267.826 232.913 269.161 233.195C248.061 228.864 226.062 227.967 205.141 227.685C184.707 227.429 166.174 226.865 148.821 227.352C141.428 239.602 137.731 253.467 139.965 268.279Z" fill="#FDBA74"/>
<path d="M276.785 349.161C273.089 377.838 265.696 405.9 254.786 432.707C254.221 434.117 256.48 434.706 257.045 433.322C268.032 406.336 275.399 378.069 279.121 349.161C279.327 347.674 276.965 347.674 276.785 349.161Z" fill="#4F3422"/>
<path d="M132.187 245.624C126.976 260.309 126.924 276.25 132.058 290.986C132.546 292.395 134.83 291.806 134.317 290.37C129.311 275.993 129.363 260.617 134.445 246.265C134.933 244.804 132.674 244.215 132.187 245.624Z" fill="#4F3422"/>
<path d="M145.766 301.416C160.5 307.208 178.033 305.107 193.024 301.544C209.273 297.675 225.933 291.063 238.511 279.838C239.641 278.838 237.972 277.172 236.843 278.172C224.573 289.141 208.221 295.522 192.383 299.289C177.776 302.749 160.732 304.825 146.382 299.161C144.996 298.597 144.38 300.853 145.766 301.416Z" fill="#4F3422"/>
<path d="M101.203 153.595C100.741 148.829 97.1987 144.882 93.0915 142.781C88.9843 140.653 84.3381 140.064 79.7945 139.5C69.4495 138.193 59.1302 136.886 48.7853 135.605C41.9571 134.733 34.7952 133.734 29.3275 129.377C23.8598 125.021 21.0875 116.128 25.3743 110.515C31.0474 103.109 44.1133 106.312 49.427 98.624C53.4572 92.8065 50.1201 84.2725 44.8064 79.7107C39.4928 75.149 32.6646 73.0475 26.8375 69.229C18.2894 63.6165 12.1287 54.1343 10.3061 43.755C9.97239 41.9098 9.79271 39.9621 10.3574 38.1682C11.6666 34.0677 16.6209 32.3507 20.6511 33.2477C24.7069 34.1446 28.0953 36.8868 31.4838 39.3727C37.1055 43.4731 44.0877 47.1123 50.6078 44.8826C56.9483 42.7299 60.5421 35.7848 62.4673 29.1472C64.3926 22.484 65.3423 15.3082 69.1158 9.59326C73.1973 3.36572 80.5132 -0.401554 87.7265 0.0341174C94.9397 0.444161 101.819 5.03152 105.259 11.6947C108.288 17.6147 108.596 24.5599 109.931 31.1462C111.24 37.7069 114.218 44.6776 120.122 47.2916C124.46 49.2137 129.414 48.368 134.138 48.2911C138.861 48.2143 144.252 49.3931 146.588 53.6986C147.948 56.2357 147.922 59.3111 147.743 62.207C146.87 75.5847 143.43 88.6292 142.147 101.981C140.837 115.308 141.967 129.634 149.283 140.653L101.203 153.595Z" fill="#4F3422"/>
<path d="M235.38 228.249L135.293 122.432C121.175 126.814 106.081 122.253 95.864 112.053C86.7255 138.039 77.3817 182.452 102.744 216.614L127.592 192.216C127.592 192.216 137.347 222.79 146.973 252.826C155.983 280.939 190.483 291.242 213.483 272.713C213.791 272.457 214.1 272.226 214.382 271.97C233.429 256.542 252.219 246.06 235.38 228.249Z" fill="#FDBA74"/>
<path d="M135.293 122.432L105.054 90.4741C105.054 90.4741 100.485 98.9056 95.864 112.053C106.106 122.278 121.175 126.814 135.293 122.432Z" fill="#FDBA74"/>
<path d="M172.283 129.48C170.435 139.218 161.065 145.625 151.311 143.78C141.556 141.935 135.139 132.581 136.987 122.842C138.835 113.104 148.205 106.697 157.959 108.542C167.714 110.361 174.131 119.741 172.283 129.48Z" fill="#FDBA74"/>
<path d="M151.183 133.836C154.443 128.121 157.728 122.432 161.091 116.768C161.861 115.461 159.833 114.282 159.063 115.589C155.701 121.227 152.415 126.942 149.155 132.657C148.41 133.99 150.438 135.169 151.183 133.836Z" fill="#4F3422"/>
<path d="M127.592 192.216L147.666 254.004L144.637 172.995L127.592 192.216Z" fill="#4F3422"/>
<path d="M90.191 131.222C86.0581 141.934 82.5156 153.518 80.5904 164.82C80.4107 165.871 81.3605 166.563 82.3103 166.152C86.4945 164.282 90.7043 162.411 94.8885 160.54C96.2747 159.925 95.0682 157.9 93.7077 158.515C89.5235 160.386 85.3137 162.257 81.1295 164.128C81.6942 164.564 82.2846 164.999 82.8494 165.461C84.7746 154.133 88.317 142.549 92.4499 131.863C93.0146 130.453 90.73 129.838 90.191 131.222Z" fill="#4F3422"/>
<path d="M114.706 128.557C116.015 132.273 117.35 135.989 118.659 139.705C119.172 141.114 121.431 140.499 120.918 139.09C119.609 135.374 118.274 131.658 116.965 127.942C116.477 126.532 114.192 127.147 114.706 128.557Z" fill="#4F3422"/>
<path d="M117.247 142.114C119.557 140.807 121.868 139.474 124.204 138.167C125.513 137.424 124.332 135.4 123.023 136.143C120.712 137.45 118.402 138.782 116.066 140.089C114.731 140.833 115.912 142.857 117.247 142.114Z" fill="#4F3422"/>
<path d="M106.568 118.152C111.651 123.611 118.53 126.532 126 126.404C127.515 126.379 127.515 124.021 126 124.072C119.121 124.2 112.934 121.561 108.237 116.512C107.184 115.384 105.516 117.05 106.568 118.152Z" fill="#4F3422"/>
<path d="M98.0459 187.859C98.0459 187.859 99.0214 174.84 102.769 169.459C109.135 160.31 111.677 159.746 117.35 156.44C119.711 155.056 122.997 154.518 125.744 154.595C128.465 154.646 131.365 156.722 131.288 159.438C131.237 162.103 128.644 163.923 126.308 165.204C115.989 170.945 104.309 176.199 98.8417 186.68L98.0459 187.859Z" fill="#4F3422"/>
<path d="M133.162 153.8C134.728 157.208 134.677 161.027 133.085 164.435C132.444 165.794 134.472 166.973 135.113 165.614C137.116 161.386 137.116 156.875 135.19 152.621C134.549 151.263 132.546 152.442 133.162 153.8Z" fill="#4F3422"/>
<path d="M35.2315 323.943C32.7672 356.849 34.6925 390.831 40.9816 423.25C41.264 424.736 43.5229 424.096 43.2405 422.635C36.9771 390.447 35.1289 356.644 37.5675 323.943C37.6958 322.431 35.3342 322.431 35.2315 323.943Z" fill="#4F3422"/>
<path d="M165.712 171.304C165.275 171.407 169.203 179.556 171.949 185.528C172.72 187.168 173.438 188.91 174.85 190.064C176.236 191.217 178.444 191.704 180.292 190.679C182.679 189.372 183.373 186.143 182.423 183.99C181.447 181.837 179.342 180.505 177.314 179.274C173.515 176.942 165.712 171.304 165.712 171.304Z" fill="#C4B5FD"/>
<path d="M234.738 180.607C234.301 180.709 238.229 188.859 240.976 194.83C241.746 196.47 242.464 198.213 243.876 199.366C245.262 200.52 247.47 201.007 249.318 199.981C251.706 198.674 252.399 195.445 251.449 193.293C250.473 191.14 248.368 189.807 246.341 188.577C242.567 186.245 234.738 180.607 234.738 180.607Z" fill="#C4B5FD"/>
<path d="M57.2818 173.508C56.9995 173.175 51.3521 180.223 47.1679 185.272C46.0127 186.681 44.7806 188.091 44.3185 189.833C43.8822 191.602 44.4212 193.78 46.1154 195.01C48.3487 196.599 51.5574 195.805 53.072 194.011C54.5865 192.217 54.8945 189.731 55.1256 187.373C55.5876 182.965 57.2818 173.508 57.2818 173.508Z" fill="#C4B5FD"/>
<path d="M126.95 135.528C126.514 135.502 127.9 144.446 128.798 150.93C129.055 152.724 129.26 154.595 130.261 156.107C131.263 157.619 133.239 158.695 135.293 158.26C137.962 157.696 139.554 154.8 139.272 152.468C138.964 150.136 137.346 148.239 135.755 146.471C132.803 143.191 126.95 135.528 126.95 135.528Z" fill="#C4B5FD"/>
<path d="M142.609 109.721C138.989 97.6758 143.456 86.7841 152.055 78.25C158.575 71.7662 167.329 66.1538 171.641 57.7735C175.389 50.5208 171.205 43.3963 164.197 40.2441C159.859 38.2964 155.007 38.117 150.361 37.7326C146.639 37.4251 141.89 37.9376 143.045 32.6327C143.687 29.6855 145.201 26.3539 148.641 26.0464C150.13 25.9182 150.156 23.5605 148.641 23.7142C145.047 24.0218 142.814 26.3539 141.53 29.6086C140.427 32.3764 139.169 37.1175 142.48 38.8602C144.328 39.8341 146.947 39.8084 148.975 39.9878C152.645 40.321 156.368 40.3979 159.936 41.2949C166.405 42.9094 172.95 48.2912 170.075 55.5951C167.97 60.9001 162.888 65.2311 158.755 68.9728C154.673 72.6632 150.387 76.2254 146.844 80.4797C139.759 88.9624 137.167 99.7004 140.375 110.362C140.76 111.771 143.045 111.156 142.609 109.721Z" fill="#4F3422"/>
<path d="M37.1053 112.412C40.9815 112.079 43.5998 109.798 46.0128 106.902C48.7594 103.647 51.7115 99.8798 52.1992 95.5231C53.072 87.5273 45.063 82.5811 37.9781 82.2736C30.2001 81.9661 18.5717 84.7851 13.6174 91.3714C11.7691 93.8317 10.383 97.6502 12.3082 100.495C13.8227 102.75 16.8261 103.391 19.008 101.751C20.1889 100.854 19.0337 98.8035 17.8272 99.7261C13.8484 102.725 13.9511 95.2156 14.9522 93.5754C15.7993 92.2171 17.0058 91.0383 18.2893 90.1157C20.0348 88.8599 22.0628 87.9886 24.0907 87.271C29.507 85.3233 36.1555 83.5293 41.8286 85.2208C47.6813 86.9378 51.5318 92.3709 48.9905 98.3422C47.1166 102.776 42.342 109.644 37.1053 110.08C35.6165 110.208 35.6165 112.54 37.1053 112.412Z" fill="#4F3422"/>
</svg>
