<svg width="375" height="597" viewBox="0 0 375 597" fill="none" xmlns="http://www.w3.org/2000/svg">
<path d="M309.648 393.563C317.789 402.527 330.381 394.888 334.294 385.861C337.386 378.758 337.954 370.583 339.027 363.007C340.258 354.484 341.362 345.962 342.372 337.439C346.064 306.031 350.356 273.203 343.003 241.985C341.394 235.23 334.609 206 322.397 213.481C320.819 214.459 322.271 216.953 323.848 215.975C335.02 209.156 342.467 253.916 343.098 260.009C344.739 276.012 344.013 292.174 342.625 308.178C341.078 325.633 339.027 343.058 336.566 360.387C335.493 367.994 334.956 376.138 332.243 383.367C329.402 390.974 319.146 399.718 311.731 391.542C310.437 390.154 308.417 392.174 309.648 393.563Z" fill="#FACC15"/>
<path d="M-5.76338 314.175C-12.9268 299.718 -11.5383 283.367 -7.43589 268.216C-3.45972 253.538 2.59921 239.112 9.98353 225.823C24.405 199.908 47.7571 177.086 78.3358 173.203C80.1661 172.982 80.1661 170.078 78.3358 170.331C46.6842 174.371 22.4801 197.477 7.49052 224.403C-0.524928 238.797 -7.15187 254.674 -11.0334 270.678C-14.694 285.703 -15.262 301.518 -8.22481 315.659C-7.43589 317.3 -4.9429 315.817 -5.76338 314.175Z" fill="#FACC15"/>
<path d="M567.973 339.017C555.918 338.196 543.264 337.155 534.049 338.228C514.137 340.532 495.518 349.15 476.174 354.358C456.293 359.693 435.654 361.46 415.143 363.165C400.185 364.427 385.227 365.69 370.237 365.69C356.51 365.722 342.783 364.743 329.118 363.512C307.439 361.586 285.349 359.535 263.196 356.788C213.115 350.602 162.877 340.943 117.151 321.624C106.043 316.921 95.0609 311.902 84.2369 306.568C33.2409 281.441 -14.41 249.371 -57.0118 211.461C-73.0427 197.193 -88.3478 182.136 -102.864 166.29L-102.927 166.227C-105.83 163.039 -102.359 158.115 -98.446 159.851L-77.1451 169.289C-73.7685 170.772 -69.7292 170.299 -67.0154 167.774C-63.7334 164.712 -64.8695 160.892 -66.1633 157.547C-70.3919 146.562 -76.2615 136.24 -80.2061 125.16C-82.4151 118.91 -84.0876 109.093 -84.3717 99.7183C-84.5294 94.4469 -77.3976 92.9002 -75.441 97.7613C-71.7489 106.915 -61.7769 123.866 -52.6254 135.672C-51.1107 137.629 -48.1443 135.608 -49.3435 133.43C-57.138 119.478 -65.8477 101.36 -66.4789 91.2588C-66.6682 88.1338 -64.4592 85.2613 -61.3667 84.9772C-57.4221 84.5984 -55.718 88.9545 -54.5819 92.4582C-50.3849 105.242 -43.6632 117.458 -32.997 125.444C-37.9199 117.837 -43.253 107.168 -45.9353 98.4241C-47.4501 93.4999 -41.0125 90.154 -38.0146 94.289C-34.8589 98.6451 -31.861 105.148 -29.7151 108.904C-17.471 130.242 -1.28233 149.245 17.778 164.586C29.5172 174.055 42.2977 182.105 55.0152 190.154C78.8091 205.147 106.358 219.068 134.381 229.642C150.349 235.608 166.443 240.532 182.063 243.973C203.774 248.739 225.927 251.77 248.27 253.727C282.383 256.726 316.874 257.262 350.766 257.736C398.133 258.399 446.857 258.493 491.068 241.195C500.283 237.597 518.555 231.189 534.996 227.243C539.887 226.075 542.222 233.146 537.615 235.198C524.771 240.974 510.003 247.193 497.822 251.549C496.054 252.18 494.666 253.664 494.35 255.526C493.625 259.851 500.378 258.967 504.701 257.862L557.685 244.352C563.271 242.931 566.963 250.034 562.671 253.916C560.21 256.126 557.149 257.988 554.277 259.282C543.327 264.207 526.097 269.92 511.17 275.349C506.342 277.117 508.235 284.472 513.284 283.556C528.022 280.936 549.512 274.623 567.531 269.699C573.148 268.152 576.461 275.854 571.57 279.042C559.01 287.155 545.82 293.72 532.029 299.339C515.525 306.094 518.807 319.825 530.42 321.814C537.015 322.95 543.201 323.55 547.271 323.581C553.172 323.645 562.261 325.381 570.213 328.506C575.957 330.81 574.032 339.427 567.973 339.017Z" fill="#FDBA74"/>
<path d="M142.838 270.11C149.402 290.312 169.851 296.088 185.408 289.365C201.597 282.736 214.22 267.49 223.371 251.076C207.814 249.15 190.994 247.919 175.815 243.973C164.833 241.133 153.599 237.25 142.365 232.61C138.957 244.763 139.619 258.02 142.838 270.11Z" fill="#FDBA74"/>
<path d="M265.153 362.944C264.49 360.924 263.827 358.872 263.165 356.789C257.421 338.765 251.993 319.51 250.668 300.886C249.248 280.937 248.522 265.533 248.238 253.727C244.23 253.38 227.316 251.486 223.34 251.044C212.61 267.458 206.646 280.558 187.617 287.155C169.346 293.879 150.98 290.28 143.28 270.078C139.493 257.989 138.704 244.731 142.743 232.61C139.935 231.631 137.158 230.621 134.349 229.58C118.003 243.184 105.254 261.114 95.7867 279.99C91.4319 288.639 87.5819 297.509 84.2054 306.568C69.8154 344.92 63.504 386.334 61.8631 426.991C59.591 483.462 62.1155 541.321 72.0875 596.971L421.675 583.525C354.68 520.204 294.185 452.243 265.153 362.944Z" fill="#FACC15"/>
<path d="M189.29 200.855C182.631 194.479 183.073 182.484 190.173 176.486C194.055 173.203 199.356 171.688 202.859 168.058C210.969 159.662 205.415 146.278 205.573 134.82C205.699 123.708 212.989 113.955 222.141 107.168C238.771 94.7628 249.721 101.613 263.038 96.9093C294.816 85.7035 289.483 67.9952 302.2 54.6745C314.918 41.3854 334.42 36.398 353.039 36.3665C366.86 36.3665 379.83 43.6897 393.652 43.2793C409.778 42.8059 411.072 24.6556 441.871 22.888C463.298 21.6885 484.063 33.2415 494.035 51.6442C504.038 70.047 498.863 100.508 481.412 112.787C468.695 121.72 442.913 125.476 427.418 123.582C411.198 121.594 401.731 109.315 388.288 118.405C372.856 128.822 372.478 152.307 357.677 163.513C346.096 172.288 329.813 170.615 315.265 168.91C300.749 167.206 284.087 166.543 273.547 176.486C266.383 183.273 262.944 194.321 253.571 197.667C240.444 202.338 225.044 188.323 212.926 195.141C209.676 196.972 207.372 200.066 204.342 202.244C201.313 204.422 196.737 205.495 193.992 203.033L189.29 200.855Z" fill="#4F3422"/>
<path d="M191.972 181.41C200.461 174.845 202.165 163.955 201.376 153.79C200.272 139.333 195.917 124.119 207.403 112.471C225.359 94.2893 254.77 99.3398 274.557 84.3145C285.412 76.0759 288.852 62.408 297.94 52.6543C307.281 42.6164 320.377 36.2402 334.073 35.2616C356.825 33.6518 388.572 46.6884 405.675 24.6871C410.977 17.8374 413.912 2.11775 401.983 0.129117C398.291 -0.47063 393.81 1.01295 392.295 4.70613C390.749 8.494 394.883 10.9561 398.228 9.88288C399.995 9.3147 399.238 6.53693 397.471 7.10511C396.713 6.50537 395.988 5.87405 395.23 5.27431C396.019 4.16951 397.06 3.47507 398.354 3.12785C399.743 2.68593 401.415 2.74906 402.772 3.25411C406.18 4.51673 407.569 8.33617 407.6 11.6821C407.664 17.3324 404.382 22.6038 400.248 26.2339C392.043 33.3992 380.367 35.1985 369.858 34.7881C356.857 34.2831 343.919 31.0634 330.886 32.6732C321.324 33.8727 312.109 37.5659 304.315 43.2161C296.015 49.2452 290.461 56.9787 285.475 65.8487C282.477 71.1517 279.416 76.4231 274.777 80.432C270.202 84.3777 264.742 87.0923 259.094 89.1125C240.854 95.6781 218.448 96.0569 204.5 111.335C196.548 120.078 195.822 131.032 197.147 142.301C198.536 154.327 201.723 170.299 190.552 178.885C189.069 180.021 190.489 182.515 191.972 181.41Z" fill="#4F3422"/>
<path d="M235.268 191.669C244.767 196.341 256.033 195.71 264.648 189.365C269.318 185.924 272.947 181.032 278.059 178.159C285.223 174.15 293.428 175.476 301.033 177.433C313.056 180.495 324.48 183.841 337.039 182.231C347.674 180.874 357.078 176.202 364.273 168.184C371.846 159.725 377.022 148.898 386.394 142.174C397.755 134.03 412.681 134.82 425.714 137.503C448.53 142.143 476.521 154.011 495.739 134.22C500.914 128.885 509.151 113.828 499.368 109.157C496.181 107.642 491.952 107.799 489.806 110.924C487.786 113.892 488.481 117.964 491.605 119.731C493.214 120.647 494.666 118.153 493.057 117.238C488.702 114.775 493.719 110.451 497.033 111.335C499.021 111.871 500.251 113.166 500.662 115.375C501.072 117.711 500.409 120.52 499.652 122.698C497.916 127.907 494.161 132.326 489.806 135.577C480.876 142.237 469.925 143.342 459.133 142.017C438.274 139.428 417.509 128.538 396.177 134.409C377.4 139.586 371.72 158.21 358.34 170.047C350.23 177.212 339.501 179.927 328.866 179.801C318.01 179.643 308.259 175.823 297.751 173.677C287.242 171.53 278.533 173.077 270.517 180.306C266.068 184.283 262.092 188.576 256.285 190.564C249.816 192.774 242.842 192.174 236.751 189.176C235.047 188.355 233.596 190.848 235.268 191.669Z" fill="#4F3422"/>
<path d="M83.7635 320.331C72.687 308.967 54.2262 310.451 38.7002 313.797C23.1742 317.142 5.97573 321.309 -7.71996 313.291C-8.66667 309.535 -5.29008 305.968 -1.72415 304.453C1.87333 302.938 5.91261 302.559 9.22609 300.507C20.0501 293.752 15.3481 275.571 24.1209 266.29C31.1897 258.841 44.917 259.535 50.0607 250.634C56.1512 240.091 45.1378 223.992 53.8791 215.533C56.1196 213.355 59.2122 212.345 61.9892 210.987C76.6632 203.885 84.2369 184.883 78.5251 169.605C85.2151 169.384 91.274 173.929 95.0924 179.422C98.9108 184.914 101.025 191.385 103.771 197.477C109.514 210.135 123.494 220.931 134.349 229.611C135.769 230.747 132.077 232.42 132.708 234.125C133.308 235.766 132.992 237.566 132.645 239.27C129.205 257.01 125.703 274.876 118.886 291.606C112.07 308.336 101.562 324.024 86.6036 334.188L83.7635 320.331Z" fill="#FACC15"/>
<path d="M241.043 260.103C262.376 236.24 292.418 219.479 324.89 213.323C313.782 222.351 301.664 233.746 303.368 247.477C303.873 251.486 305.577 255.432 305.104 259.472C303.684 271.625 283.866 277.496 285.16 289.649C286.012 297.73 296.394 303.222 295.826 311.334C295.258 319.289 284.181 324.781 285.728 332.61C286.706 337.565 292.386 340.343 295.132 344.668C299.171 351.012 296.268 359.093 296.836 366.448C297.593 376.612 307.092 391.921 317.569 394.32C286.359 395.267 254.076 372.603 238.929 346.909C223.75 321.214 225.202 287.565 242.526 263.102L241.043 260.103Z" fill="#FACC15"/>
<path d="M270.517 376.801C248.711 362.597 227.379 346.94 221.699 319.952C216.334 294.51 227 268.184 247.986 253.033C249.09 252.212 248.017 250.349 246.881 251.17C225.991 266.259 214.851 291.858 219.016 317.426C223.75 346.53 246.187 363.575 269.413 378.664C270.612 379.421 271.685 377.559 270.517 376.801Z" fill="#4F3422"/>
<path d="M80.8602 320.899C92.5363 287.881 110.082 255.937 134.223 230.369C135.17 229.358 133.655 227.812 132.677 228.853C108.283 254.737 90.5798 286.966 78.7775 320.331C78.3041 321.625 80.3869 322.193 80.8602 320.899Z" fill="#4F3422"/>
<path d="M64.5454 300.318C66.8806 300.192 68.9634 300.823 70.8883 302.149C72.0244 302.938 73.1289 301.075 71.9928 300.286C69.8154 298.771 67.2277 298.014 64.577 298.171C63.1569 298.203 63.1569 300.381 64.5454 300.318Z" fill="#4F3422"/>
<path d="M70.7621 284.188C73.1919 286.555 75.7796 288.702 78.5251 290.659C79.6611 291.48 80.7341 289.586 79.6296 288.797C77.0103 286.934 74.5805 284.882 72.3084 282.641C71.267 281.694 69.7522 283.209 70.7621 284.188Z" fill="#4F3422"/>
<path d="M102.824 239.681C106.043 241.101 109.293 242.49 112.512 243.91C113.774 244.447 114.879 242.585 113.616 242.048C110.398 240.628 107.147 239.239 103.928 237.818C102.666 237.282 101.562 239.144 102.824 239.681Z" fill="#4F3422"/>
<path d="M112.102 233.335C113.017 236.145 114.879 238.481 117.466 239.901C118.697 240.564 119.77 238.702 118.571 238.039C116.488 236.871 114.942 235.04 114.184 232.767C113.774 231.442 111.691 232.01 112.102 233.335Z" fill="#4F3422"/>
<path d="M116.93 222.572C118.287 226.012 120.464 228.822 123.431 231C124.567 231.82 125.64 229.958 124.535 229.137C122.074 227.306 120.149 224.844 119.044 222.003C118.508 220.709 116.393 221.277 116.93 222.572Z" fill="#4F3422"/>
<path d="M238.866 269.068C241.8 268.342 244.735 267.616 247.67 266.89C249.027 266.543 248.459 264.459 247.102 264.806C244.167 265.532 241.232 266.258 238.298 266.984C236.941 267.3 237.509 269.383 238.866 269.068Z" fill="#4F3422"/>
<path d="M234.606 280.716C237.856 280.305 241.012 280.558 244.167 281.536C245.493 281.947 246.061 279.863 244.735 279.453C241.422 278.411 238.045 278.127 234.606 278.538C233.249 278.727 233.217 280.905 234.606 280.716Z" fill="#4F3422"/>
<path d="M227.821 327.622C230.061 329.958 232.302 332.294 234.542 334.661C235.521 335.671 237.035 334.125 236.089 333.146C233.848 330.81 231.608 328.474 229.367 326.107C228.389 325.065 226.874 326.612 227.821 327.622Z" fill="#4F3422"/>
<path d="M228.389 322.13C231.355 322.667 234.322 323.203 237.288 323.771C238.645 324.024 239.244 321.941 237.856 321.688C234.89 321.151 231.923 320.615 228.957 320.047C227.6 319.794 227 321.877 228.389 322.13Z" fill="#4F3422"/>
<path d="M227.221 312.881C229.84 314.301 232.649 315.059 235.584 315.122C236.972 315.154 236.972 313.007 235.584 312.944C232.996 312.881 230.566 312.218 228.294 310.987C227.063 310.356 225.99 312.218 227.221 312.881Z" fill="#4F3422"/>
<path d="M217.47 135.546C219.742 123.772 228.357 114.334 239.939 111.146C241.737 110.64 240.98 107.863 239.181 108.368C226.685 111.808 217.154 122.036 214.693 134.788C214.346 136.619 217.123 137.377 217.47 135.546Z" fill="#251404"/>
<path d="M281.436 103.759C288.094 99.5921 294.974 95.1729 298.918 88.1338C301.127 84.2197 302.611 79.9583 305.104 76.202C307.881 72.0354 311.32 68.5 315.202 65.375C316.653 64.2071 314.602 62.1869 313.151 63.3233C306.713 68.4685 301.979 74.7816 298.54 82.2626C294.469 91.1641 288.094 96.183 279.953 101.265C278.406 102.244 279.858 104.737 281.436 103.759Z" fill="#251404"/>
<path d="M333.095 56.0948C344.928 46.9408 360.233 51.6125 372.982 55.8739C374.75 56.4736 375.507 53.6643 373.74 53.0961C359.729 48.456 343.824 44.163 331.043 54.0746C329.56 55.1794 331.643 57.1996 333.095 56.0948Z" fill="#251404"/>
<path d="M193.802 254.895L207.056 167.995C207.056 167.995 164.076 176.96 156.502 209.157L174.395 210.798L155.619 241.006C148.739 252.086 153.946 266.732 166.285 270.962C166.506 271.025 166.695 271.12 166.916 271.183C179.002 275.255 191.877 267.49 193.802 254.895Z" fill="#FDBA74"/>
<path d="M214.03 207.484C209.581 210.009 203.932 208.43 201.408 203.98C198.883 199.529 200.461 193.879 204.91 191.354C209.36 188.828 215.009 190.407 217.533 194.857C220.026 199.308 218.48 204.958 214.03 207.484Z" fill="#FDBA74"/>
<path d="M205.447 201.076C208.792 200.444 212.137 199.845 215.482 199.276C216.839 199.056 216.271 196.972 214.914 197.193C211.569 197.761 208.224 198.361 204.879 198.992C203.522 199.245 204.09 201.328 205.447 201.076Z" fill="#4F3422"/>
<path d="M174.363 210.798L156.692 239.302L187.649 211.082L174.363 210.798Z" fill="#4F3422"/>
<path d="M168.936 192.553C168.936 192.553 180.517 195.584 190.268 196.341C190.268 196.341 172.091 206.284 162.277 202.654L168.936 192.553Z" fill="white"/>
<path d="M185.945 175.224C180.233 177.212 174.427 179.706 169.22 182.768C168.557 183.147 168.462 184.283 169.22 184.63C171.366 185.672 173.48 186.682 175.626 187.724C176.888 188.323 177.961 186.461 176.73 185.861C174.584 184.82 172.47 183.81 170.324 182.768C170.324 183.399 170.324 183.999 170.324 184.63C175.373 181.663 180.99 179.264 186.513 177.307C187.838 176.865 187.27 174.782 185.945 175.224Z" fill="#4F3422"/>
<path d="M189.732 187.566C192.225 185.893 196.737 188.102 197.968 190.501C198.599 191.732 200.461 190.659 199.83 189.396C198.063 185.987 192.067 183.336 188.627 185.672C187.491 186.461 188.596 188.355 189.732 187.566Z" fill="#4F3422"/>
</svg>
