<svg width="308" height="248" viewBox="0 0 308 248" fill="none" xmlns="http://www.w3.org/2000/svg">
<g clip-path="url(#clip0_21994_4078)">
<rect width="308" height="248" rx="24" fill="#F9F5C8"/>
<path d="M31.222 -48.8625C1.53986 -15.9072 -16.9176 33.8535 -18.8843 79.152C-20.0978 106.19 -10.7508 211.602 32.4441 201.358C38.7305 199.896 42.8233 194.081 46.4354 188.542C83.4933 131.174 112.376 65.197 120.321 -8.04367C121.706 -21.048 122.528 -34.6108 118.521 -47.7947C108.84 -80.1049 84.81 -87.5903 60.7 -73.4295C50.0143 -67.0995 40.1061 -58.7292 31.222 -48.8625Z" fill="#F9EC8F"/>
<path d="M472.173 63.8617C416.609 -84.2312 127.543 160.45 76.1295 222.791C30.0718 278.576 -28.9732 419.98 84.1629 441.92C173.199 459.177 294.503 364.997 356.225 309.345C406.835 263.861 474.047 168.343 476.859 97.8415C477.529 84.5974 475.788 73.3599 472.173 63.8617Z" fill="#F9EC8F"/>
<path d="M139.228 26.7225C138.92 22.7986 138.986 18.8526 139.536 14.9507C139.954 11.9967 135.423 10.7181 135.005 13.6941C134.389 18.0369 134.191 22.3356 134.543 26.7005C134.763 29.7206 139.47 29.7427 139.228 26.7225Z" fill="#EF8834"/>
<path d="M149.411 28.0451C151.127 23.6362 153.304 19.4477 155.878 15.4797C157.527 12.9225 153.458 10.5637 151.831 13.0989C149.038 17.4196 146.75 21.9829 144.881 26.7886C143.781 29.6324 148.312 30.8448 149.411 28.0451Z" fill="#EF8834"/>
<path d="M158.517 32.8069C162.696 30.1615 166.391 26.8989 169.47 23.019C171.34 20.6603 168.019 17.3095 166.149 19.6903C163.312 23.2615 160.013 26.3037 156.164 28.7507C153.59 30.3599 155.944 34.4382 158.517 32.8069Z" fill="#EF8834"/>
<path d="M189.771 117.657H59.102C53.1634 117.657 48.3687 112.829 48.3687 106.877V55.1163C48.3687 49.1642 53.1854 44.3364 59.102 44.3364H189.771C195.71 44.3364 200.526 49.1642 200.526 55.1163V106.899C200.526 112.829 195.71 117.657 189.771 117.657Z" fill="#928D86"/>
<path d="M59.0139 129.252C85.5313 129.252 107.028 107.707 107.028 81.1289C107.028 54.551 85.5313 33.0054 59.0139 33.0054C32.4966 33.0054 11 54.551 11 81.1289C11 107.707 32.4966 129.252 59.0139 129.252Z" fill="#928D86"/>
<path d="M95.2326 89.9515C100.093 69.9108 87.8239 49.7156 67.8289 44.8441C47.8339 39.9726 27.6846 52.2697 22.8242 72.3103C17.9638 92.351 30.2329 112.546 50.2279 117.418C70.223 122.289 90.3722 109.992 95.2326 89.9515Z" fill="#3F3C36"/>
<path d="M25.0544 81.1287C25.0544 99.6462 39.8127 114.703 58.1781 115.144V47.1138C39.8127 47.5547 25.0544 62.6112 25.0544 81.1287Z" fill="#F9EC8F"/>
<path d="M59.014 47.0918C58.7281 47.0918 58.4642 47.1138 58.1782 47.1138V115.144C58.4642 115.144 58.7281 115.166 59.014 115.166C77.7753 115.166 92.9735 99.9328 92.9735 81.1287C92.9735 62.3247 77.7753 47.0918 59.014 47.0918Z" fill="#928D86"/>
<path d="M182.315 111.286H129.286C127.021 111.286 125.173 109.434 125.173 107.164V54.014C125.173 51.7434 127.021 49.8916 129.286 49.8916H182.315C184.581 49.8916 186.428 51.7434 186.428 54.014V107.164C186.428 109.434 184.581 111.286 182.315 111.286Z" fill="#3F3C36"/>
<path d="M136.918 68.8939C140.781 68.8939 143.913 65.7554 143.913 61.8837C143.913 58.0121 140.781 54.8735 136.918 54.8735C133.056 54.8735 129.924 58.0121 129.924 61.8837C129.924 65.7554 133.056 68.8939 136.918 68.8939Z" fill="#F9EC8F"/>
<path d="M155.218 68.8939C159.081 68.8939 162.212 65.7554 162.212 61.8837C162.212 58.0121 159.081 54.8735 155.218 54.8735C151.355 54.8735 148.224 58.0121 148.224 61.8837C148.224 65.7554 151.355 68.8939 155.218 68.8939Z" fill="#F9EC8F"/>
<path d="M180.534 61.8837C180.534 65.7636 177.388 68.8939 173.539 68.8939C169.668 68.8939 166.545 65.7416 166.545 61.8837C166.545 58.0039 169.69 54.8735 173.539 54.8735C177.388 54.8735 180.534 58.0039 180.534 61.8837Z" fill="#F9EC8F"/>
<path d="M142.44 84.8825C144.811 81.8255 144.26 77.4212 141.21 75.0451C138.16 72.6691 133.766 73.2212 131.395 76.2782C129.024 79.3353 129.575 83.7396 132.625 86.1156C135.675 88.4917 140.07 87.9396 142.44 84.8825Z" fill="#F9EC8F"/>
<path d="M160.157 85.5433C162.889 82.8057 162.889 78.3671 160.157 75.6295C157.426 72.8919 152.997 72.8919 150.266 75.6295C147.535 78.3671 147.535 82.8057 150.266 85.5433C152.997 88.281 157.426 88.281 160.157 85.5433Z" fill="#F9EC8F"/>
<path d="M180.533 80.5776C180.533 84.4574 177.388 87.5878 173.539 87.5878C169.668 87.5878 166.545 84.4354 166.545 80.5776C166.545 76.6977 169.69 73.5674 173.539 73.5674C177.388 73.5674 180.533 76.7198 180.533 80.5776Z" fill="#F9EC8F"/>
<path d="M143.69 101.086C144.684 97.3447 142.463 93.5044 138.73 92.5086C134.997 91.5128 131.165 93.7387 130.172 97.4802C129.178 101.222 131.399 105.062 135.132 106.058C138.865 107.054 142.697 104.828 143.69 101.086Z" fill="#F9EC8F"/>
<path d="M162.031 100.925C162.931 97.1598 160.615 93.3766 156.858 92.4749C153.102 91.5732 149.327 93.8945 148.427 97.6596C147.528 101.425 149.844 105.208 153.6 106.11C157.357 107.011 161.132 104.69 162.031 100.925Z" fill="#F9EC8F"/>
<path d="M180.534 99.2935C180.534 103.173 177.388 106.304 173.539 106.304C169.668 106.304 166.545 103.151 166.545 99.2935C166.545 95.4137 169.69 92.2833 173.539 92.2833C177.388 92.2613 180.534 95.4137 180.534 99.2935Z" fill="#F9EC8F"/>
<path d="M135.753 58.9081C135.753 60.9362 135.753 62.9423 135.753 64.9704C135.753 66.271 137.776 66.271 137.776 64.9704C137.776 62.9423 137.776 60.9362 137.776 58.9081C137.776 57.6075 135.753 57.6075 135.753 58.9081Z" fill="#3F3C36"/>
<path d="M135.489 61.5974C136.302 61.1565 136.984 60.4731 137.424 59.6575C137.688 59.1725 137.534 58.5552 137.072 58.2687C136.61 58.0041 135.951 58.1584 135.687 58.6214C135.379 59.1945 135.027 59.5473 134.455 59.8338C133.971 60.0984 133.817 60.7597 134.103 61.2226C134.411 61.7076 135.027 61.8399 135.489 61.5974Z" fill="#3F3C36"/>
<path d="M154.272 59.8115C154.58 58.7754 155.658 59.2824 155.526 60.1642C155.438 60.7154 154.888 61.2224 154.536 61.6192C153.81 62.3907 153.062 63.1182 152.337 63.8677C151.743 64.4629 152.161 65.6313 153.04 65.5872C154.58 65.499 156.098 65.5211 157.637 65.5872C158.935 65.6534 158.935 63.6473 157.637 63.5812C156.098 63.493 154.58 63.493 153.04 63.5812C153.282 64.1543 153.524 64.7275 153.744 65.3006C155.306 63.7134 158.627 61.2665 157.285 58.6432C156.12 56.3505 153.018 57.0559 152.359 59.3045C151.963 60.517 153.898 61.0681 154.272 59.8115Z" fill="#3F3C36"/>
<path d="M173.517 59.1943C174.309 58.4889 174.661 58.6211 174.639 59.5691C174.419 60.032 174.067 60.2524 173.561 60.2524C172.286 60.3406 172.264 62.3026 173.561 62.2806C174.507 62.2585 175.123 63.1844 174.419 63.956C173.715 64.7275 172.769 64.2205 172.22 63.5812C171.384 62.5892 169.954 64.0221 170.79 65.0141C172.33 66.8438 175.277 66.8218 176.421 64.5512C177.476 62.479 175.783 60.1863 173.561 60.2524C173.561 60.9358 173.561 61.5972 173.561 62.2806C175.739 62.1483 177.542 59.9879 176.245 57.8716C175.013 55.8656 172.11 56.4828 171.56 58.6652C171.274 59.8997 173.209 60.4509 173.517 59.1943Z" fill="#3F3C36"/>
<path d="M135.203 76.632C134.609 78.0428 134.015 79.4757 133.421 80.8866C133.157 81.5038 133.795 82.1652 134.389 82.1652C135.489 82.1431 136.566 82.1431 137.666 82.1211C138.964 82.099 138.964 80.093 137.666 80.115C136.566 80.1371 135.489 80.1371 134.389 80.1591C134.719 80.578 135.027 81.0189 135.357 81.4377C135.951 80.0269 136.544 78.594 137.138 77.1831C137.358 76.6761 136.918 76.0809 136.434 75.9486C135.863 75.7502 135.423 76.1249 135.203 76.632Z" fill="#3F3C36"/>
<path d="M136.655 78.66C136.655 80.3795 136.655 82.099 136.655 83.8185C136.655 85.1191 138.656 85.1191 138.656 83.8185C138.656 82.099 138.656 80.3795 138.656 78.66C138.678 77.3594 136.655 77.3594 136.655 78.66Z" fill="#3F3C36"/>
<path d="M153.568 78.5497C154.382 78.5497 155.218 78.5497 156.032 78.5497C157.329 78.5497 157.329 76.5436 156.032 76.5436C155.218 76.5436 154.382 76.5436 153.568 76.5436C152.271 76.5216 152.271 78.5497 153.568 78.5497Z" fill="#3F3C36"/>
<path d="M152.556 77.9765C152.556 78.7922 152.556 79.6299 152.556 80.4455C152.556 81.7461 154.58 81.7461 154.58 80.4455C154.58 79.6299 154.58 78.7922 154.58 77.9765C154.58 76.6979 152.556 76.6759 152.556 77.9765Z" fill="#3F3C36"/>
<path d="M154.096 82.1649C154.602 81.9665 155.24 81.7019 155.768 81.9665C156.054 82.1208 156.361 82.4514 156.164 82.7821C155.834 83.3332 154.558 83.245 154.03 83.223C152.732 83.1789 152.732 85.185 154.03 85.2511C155.68 85.3172 157.901 84.9204 158.209 82.9585C158.363 81.9224 157.835 80.8863 156.955 80.3351C155.922 79.6738 154.646 79.784 153.568 80.2249C153.062 80.4454 152.71 80.8863 152.864 81.4594C152.974 81.9444 153.59 82.3633 154.096 82.1649Z" fill="#3F3C36"/>
<path d="M173.055 77.2047C172.198 78.7478 170.746 80.5555 170.724 82.4073C170.724 83.774 171.582 85.0967 173.011 85.229C176.157 85.4935 176.662 80.798 173.561 80.3571C172.286 80.1807 171.758 82.1207 173.033 82.297C173.451 82.3632 174.089 82.9584 173.429 83.2009C172.55 83.5095 172.791 82.0105 172.923 81.6577C173.363 80.4673 174.155 79.3431 174.793 78.2408C175.431 77.0945 173.693 76.0804 173.055 77.2047Z" fill="#3F3C36"/>
<path d="M134.983 97.8606C136.369 97.8606 137.754 97.8827 139.162 97.8827C138.876 97.3756 138.59 96.8686 138.282 96.3616C137.358 98.3456 136.522 100.352 135.753 102.402C135.313 103.614 137.248 104.143 137.688 102.931C138.392 101.035 139.162 99.1833 139.998 97.3756C140.306 96.6923 139.932 95.8546 139.14 95.8546C137.754 95.8546 136.369 95.8325 134.961 95.8325C133.685 95.8546 133.685 97.8606 134.983 97.8606Z" fill="#3F3C36"/>
<path d="M59.0139 99.7786C69.2905 99.7786 77.6213 91.4288 77.6213 81.1288C77.6213 70.8288 69.2905 62.479 59.0139 62.479C48.7374 62.479 40.4066 70.8288 40.4066 81.1288C40.4066 91.4288 48.7374 99.7786 59.0139 99.7786Z" fill="#3F3C36"/>
<path d="M63.7648 59.7453C63.5668 56.5268 63.6328 53.3303 63.9408 50.1118C64.0727 48.8111 62.0492 48.8332 61.9393 50.1118C61.6093 53.3082 61.5434 56.5268 61.7633 59.7453C61.8293 61.0239 63.8528 61.0459 63.7648 59.7453Z" fill="#F9EC8F"/>
<path d="M61.2135 102.688C61.2135 106.061 61.2135 109.434 61.2135 112.785C61.2135 114.085 63.215 114.085 63.215 112.785C63.215 109.412 63.215 106.039 63.215 102.688C63.215 101.388 61.2135 101.388 61.2135 102.688Z" fill="#F9EC8F"/>
<path d="M98.516 50.1341C104.059 50.1341 109.601 50.1341 115.144 50.1341C116.441 50.1341 116.441 48.106 115.144 48.106C109.601 48.106 104.059 48.106 98.516 48.106C97.2183 48.128 97.2183 50.1341 98.516 50.1341Z" fill="#F9EC8F"/>
<path d="M115.276 92.2612H106.192C104.235 92.2612 102.629 90.6519 102.629 88.69V67.2846C102.629 65.3226 104.235 63.7134 106.192 63.7134H115.276C117.233 63.7134 118.839 65.3226 118.839 67.2846V88.69C118.839 90.6519 117.233 92.2612 115.276 92.2612Z" fill="#3F3C36"/>
<path d="M102.541 80.5777C102.541 87.0368 82.8559 92.2614 58.574 92.2614C34.2921 92.2614 14.6071 87.0368 14.6071 80.5777C14.6071 74.1186 34.2921 68.894 58.574 68.894C82.8559 68.9161 102.541 74.1407 102.541 80.5777Z" fill="#928D86"/>
<path d="M101.529 80.5776C101.331 84.2811 94.9089 86.1769 92.1816 87.0587C85.6712 89.1529 78.787 90.1229 72.0127 90.696C57.0784 91.9746 41.0225 91.7101 26.5281 87.5216C23.4269 86.6398 17.1585 85.0747 15.8388 81.5255C14.5411 78.0204 20.4796 75.7498 22.811 74.868C36.2057 69.7536 51.9537 69.445 66.0742 70.0843C74.0362 70.437 82.1081 71.2968 89.8062 73.413C92.9734 74.2728 101.309 76.2348 101.529 80.5776C101.595 81.8782 103.619 81.8782 103.531 80.5776C103.333 76.7859 99.2198 74.7357 96.1626 73.4351C89.4543 70.5913 82.0202 69.467 74.828 68.7175C64.9745 67.6814 54.989 67.5932 45.1134 68.453C37.4374 69.1143 29.4974 70.1725 22.2392 72.9281C19.1819 74.0964 14.4751 75.9923 13.6833 79.6517C12.8915 83.289 16.7186 85.736 19.4899 87.0807C25.3624 89.9245 32.0487 91.1149 38.4491 91.9967C48.3686 93.3414 58.4641 93.6059 68.4496 92.9887C77.0494 92.4596 85.9792 91.4456 94.1391 88.5136C97.6802 87.235 103.267 85.0747 103.509 80.5996C103.619 79.299 101.617 79.299 101.529 80.5776Z" fill="#3F3C36"/>
<path d="M25.3184 79.5854C29.6733 77.6014 34.2482 76.5653 39.021 76.433C40.3186 76.389 40.3186 74.3829 39.021 74.427C33.8743 74.5593 28.9695 75.7276 24.2847 77.8439C23.119 78.395 24.1527 80.1366 25.3184 79.5854Z" fill="#F9EC8F"/>
<path d="M46.1032 75.6617C57.6723 74.7138 69.2634 74.7579 80.8325 75.7719C82.1302 75.8821 82.1082 73.8761 80.8325 73.7659C69.2634 72.7518 57.6723 72.7298 46.1032 73.6556C44.8275 73.7659 44.8055 75.7719 46.1032 75.6617Z" fill="#F9EC8F"/>
<path d="M269.743 302.083C222.763 267.296 168.085 200.06 162.894 162.43C162.586 160.159 159.661 159.454 158.297 161.283C153.172 168.205 145.716 177.508 141.559 180.065C141.031 180.396 140.481 180.661 139.866 180.793C136.962 181.498 135.841 179.272 135.511 177.244C134.873 173.209 136.434 169.175 137.974 165.362C142.857 153.347 147.74 141.333 153.018 129.495C154.448 126.298 155.966 123.036 158.429 120.545C165.621 113.314 179.192 112.873 187.066 119.332C177.586 112.851 171.934 108.663 167.007 106.106C159.023 101.983 155.702 101.388 141.735 99.6905C135.951 100.462 132.014 93.3858 136.215 89.3295C137.93 87.6762 140.152 86.4417 143.011 86.6401C179.566 88.9989 185.35 96.8247 215.087 117.745C208.708 111.044 202.88 103.813 197.667 96.1634C196.963 95.1273 196.589 93.8928 196.765 92.6583C197.469 87.7203 205.365 88.9107 208.774 92.4158C282.456 168.183 296.048 190.823 369.07 242.077L269.743 302.083Z" fill="#FDBA74"/>
<path d="M234.002 128.944C226.524 123.741 219.464 117.987 212.821 111.727C211.875 110.845 210.446 112.256 211.392 113.16C218.144 119.53 225.358 125.394 232.968 130.707C234.046 131.413 235.058 129.671 234.002 128.944Z" fill="#4F3422"/>
<path d="M212.315 96.1632C208.158 97.2433 203.782 94.7523 202.594 90.6079C202.242 89.3734 200.284 89.9025 200.658 91.137C202.154 96.3175 207.653 99.4699 212.865 98.1031C214.119 97.7945 213.569 95.8325 212.315 96.1632Z" fill="#4F3422"/>
<path d="M205.805 131.766C198.371 126.365 190.937 120.964 183.525 115.563C182.469 114.791 181.479 116.555 182.513 117.304C189.947 122.705 197.381 128.106 204.793 133.507C205.849 134.257 206.861 132.515 205.805 131.766Z" fill="#4F3422"/>
<path d="M190.937 142.766C185.46 137.144 179.324 131.854 172.065 128.701C167.337 126.651 161.728 125.086 156.955 127.819C150.489 131.501 146.134 140.253 144.308 147.241C143.979 148.497 145.914 149.026 146.244 147.77C147.85 141.575 151.523 134.212 156.713 130.377C161.684 126.695 167.996 128.855 173.033 131.369C179.302 134.499 184.646 139.194 189.507 144.176C190.431 145.124 191.839 143.691 190.937 142.766Z" fill="#4F3422"/>
<path d="M180.621 158.285C174.133 152.532 168.348 143.207 159.045 141.928C150.621 140.782 142.087 148.299 140.569 156.345C140.327 157.624 142.263 158.153 142.505 156.875C144.132 148.277 153.898 141.179 162.388 144.97C169.25 148.035 173.715 154.846 179.192 159.696C180.159 160.556 181.589 159.145 180.621 158.285Z" fill="#4F3422"/>
<path d="M139.14 167.588C140.987 171.159 139.338 175.899 135.599 177.442C134.411 177.927 134.939 179.889 136.127 179.382C141.097 177.332 143.363 171.38 140.877 166.552C140.284 165.428 138.546 166.442 139.14 167.588Z" fill="#4F3422"/>
<path d="M146.574 87.3898C144.462 90.7846 139.536 91.7987 136.302 89.3517C135.291 88.5802 133.861 90.0131 134.895 90.8067C139.184 94.0473 145.452 92.9671 148.311 88.3597C149.015 87.2795 147.256 86.2875 146.574 87.3898Z" fill="#4F3422"/>
<path d="M221.839 130.729C220.475 132.317 219.134 133.904 217.77 135.491C216.934 136.461 218.342 137.894 219.2 136.924C220.563 135.337 221.905 133.75 223.269 132.162C224.105 131.17 222.697 129.737 221.839 130.729Z" fill="white"/>
<path d="M211.128 147.064C209.06 148.365 207.543 150.195 206.619 152.443C206.113 153.634 208.071 154.163 208.554 152.972C209.28 151.231 210.556 149.798 212.14 148.806C213.239 148.122 212.228 146.381 211.128 147.064Z" fill="white"/>
<path d="M199.713 161.041C198.547 162.981 197.359 164.921 196.194 166.861C195.512 167.963 197.249 168.977 197.931 167.875C199.097 165.935 200.285 163.995 201.45 162.055C202.132 160.953 200.394 159.939 199.713 161.041Z" fill="white"/>
<path d="M262.331 306.028C241.678 290.024 223.444 270.911 208.378 249.55C207.41 248.183 207.85 246.265 209.324 245.494C224.962 237.315 280.454 192.741 293.541 179.69C302.954 193.049 353.894 232.576 375.69 245.714L262.331 306.028Z" fill="#9BB167"/>
<path d="M301.877 204.733C301.877 208.459 298.864 211.479 295.147 211.479C291.429 211.479 288.416 208.459 288.416 204.733C288.416 201.008 291.429 197.987 295.147 197.987C298.842 197.965 301.877 200.985 301.877 204.733Z" fill="white"/>
<path d="M313.434 221.14C316.063 218.506 316.063 214.235 313.434 211.601C310.806 208.966 306.545 208.966 303.916 211.601C301.288 214.235 301.288 218.506 303.916 221.14C306.545 223.775 310.806 223.775 313.434 221.14Z" fill="white"/>
</g>
<rect x="0.5" y="0.5" width="307" height="247" rx="23.5" stroke="#C9C7C5"/>
<defs>
<clipPath id="clip0_21994_4078">
<rect width="308" height="248" rx="24" fill="white"/>
</clipPath>
</defs>
</svg>
