<svg width="375" height="468" viewBox="0 0 375 468" fill="none" xmlns="http://www.w3.org/2000/svg">
<path d="M217.01 29.9578C219.438 38.5824 229.301 42.6691 237.112 38.2815C247.126 32.6404 259.217 40.9642 257.59 52.3467C256.313 61.222 263.648 68.9692 272.561 68.1167C284.001 67.0387 291.662 79.5745 285.553 89.3022C280.772 96.8989 284.352 106.953 292.838 109.811C303.703 113.496 305.656 128.063 296.093 134.456C288.658 139.445 287.832 150.076 294.416 156.168C302.852 163.965 298.697 178.056 287.381 180.011C278.569 181.541 273.487 190.917 277.017 199.166C281.573 209.721 272.035 220.903 260.92 218.095C252.233 215.889 243.796 222.407 243.671 231.358C243.546 242.866 230.303 249.209 221.265 242.089C214.231 236.548 203.867 239.055 200.136 247.203C195.355 257.658 180.66 258.059 175.302 247.88C171.122 239.957 160.632 238.002 153.923 243.944C145.311 251.541 131.743 245.924 130.967 234.442C130.366 225.491 121.579 219.449 113.042 222.132C102.077 225.566 91.9633 214.886 95.9437 204.105C99.048 195.681 93.4653 186.58 84.5531 185.552C73.1625 184.223 68.2308 170.359 76.2417 162.11C82.4753 155.692 81.0734 145.087 73.3878 140.523C63.5243 134.657 64.6509 119.99 75.3155 115.728C83.6269 112.393 86.656 102.164 81.4739 94.8431C74.8398 85.4663 81.8244 72.5293 93.2901 72.9806C102.227 73.3316 109.162 65.2084 107.384 56.4083C105.131 45.1261 116.772 36.1755 127.061 41.24C135.097 45.2013 144.711 40.5881 146.688 31.8381C149.217 20.6311 163.486 17.1713 170.821 25.9965C176.554 32.8911 187.219 32.5903 192.551 25.3947C199.436 16.2185 213.88 18.9012 217.01 29.9578Z" fill="#4F3422"/>
<path d="M358.203 300.53C348.815 267.636 319.901 244.169 285.829 241.763C207.847 236.222 74.6897 234.216 46.426 264.452C37.1883 274.331 56.0391 256.379 46.426 264.452C3.19176 300.731 -33.5425 467 -33.5425 467L97.4459 466.298L408.706 467.1C410.258 459.077 368.617 337.085 358.203 300.53Z" fill="#9BB167"/>
<path d="M226.673 205.233L219.713 183.07C225.546 184.449 231.955 182.995 236.687 178.607C244.272 171.587 244.748 159.753 237.738 152.157C230.728 144.56 218.912 144.084 211.327 151.104C210.876 151.53 210.451 151.956 210.05 152.407L201.839 126.283C200.812 123.049 197.608 121.043 194.254 121.544C177.631 124.026 131.217 135.685 127.838 188.335C127.587 192.321 130.716 195.731 134.722 195.731L155.2 195.706L153.573 209.947C178.257 214.685 202.84 212.103 226.673 205.233Z" fill="#CFD9B5"/>
<path d="M226.673 205.233C202.865 212.128 178.257 214.685 153.598 209.947L148.741 252.493C146.288 273.93 158.755 294.639 179.158 301.584C180.109 301.909 181.085 302.21 182.062 302.511C217.41 312.791 249.78 278.768 238.714 243.593L226.673 205.233Z" fill="#9BB167"/>
<path d="M163.261 137.791C153.147 143.03 143.008 148.245 132.895 153.485C131.568 154.162 131.443 156.093 132.419 157.096C135.423 160.154 138.402 163.188 141.406 166.247C143.484 168.353 146.713 165.119 144.636 163.013C141.632 159.954 138.652 156.92 135.648 153.861C135.498 155.065 135.348 156.268 135.173 157.472C145.287 152.232 155.425 147.017 165.539 141.777C168.193 140.398 165.865 136.437 163.261 137.791Z" fill="#4F3422"/>
<path d="M160.382 173.292C160.658 175.649 157.904 177.805 155.751 176.476C153.222 174.947 150.919 178.908 153.448 180.438C158.329 183.421 165.639 179.159 164.988 173.292C164.838 172.064 164.037 171.011 162.685 171.011C161.559 170.986 160.257 172.039 160.382 173.292Z" fill="#4F3422"/>
<path d="M227.524 160.431C223.594 161.759 219.663 163.088 215.733 164.417C212.954 165.37 214.156 169.782 216.959 168.83C220.89 167.501 224.82 166.172 228.751 164.843C231.529 163.916 230.328 159.478 227.524 160.431Z" fill="#4F3422"/>
<path d="M172.198 151.505C176.579 161.408 190.248 163.941 198.284 157.071C200.537 155.14 197.283 151.906 195.055 153.837C189.046 158.976 179.283 156.218 176.179 149.198C174.977 146.491 171.022 148.822 172.198 151.505Z" fill="#4F3422"/>
<path d="M175.953 153.335C174.276 155.04 172.574 156.72 170.896 158.425C168.819 160.506 172.048 163.765 174.126 161.659C175.803 159.954 177.505 158.274 179.183 156.569C181.286 154.488 178.056 151.254 175.953 153.335Z" fill="#4F3422"/>
<path d="M183.188 159.954C183.213 161.659 183.238 163.339 183.264 165.044C183.289 168.002 187.895 168.002 187.845 165.044C187.82 163.339 187.795 161.659 187.77 159.954C187.72 157.021 183.138 156.996 183.188 159.954Z" fill="#4F3422"/>
<path d="M192.201 159.904C192.751 161.408 193.277 162.937 193.828 164.442C194.254 165.595 195.38 166.397 196.657 166.046C197.783 165.745 198.685 164.392 198.259 163.213C197.708 161.709 197.183 160.18 196.632 158.675C196.206 157.497 195.08 156.72 193.803 157.071C192.676 157.397 191.8 158.75 192.201 159.904Z" fill="#4F3422"/>
<path d="M207.972 328.335C207.972 332.723 204.417 336.308 200.011 336.308C195.63 336.308 192.051 332.748 192.051 328.335C192.051 323.948 195.605 320.362 200.011 320.362C204.417 320.362 207.972 323.922 207.972 328.335Z" fill="#4F3422"/>
<path d="M92.7646 303.163C67.2546 316.276 41.7447 329.388 16.2097 342.501C10.3517 345.509 4.49365 348.518 -1.36438 351.526C-10.9775 356.491 -18.7882 363.034 -23.019 373.314C-26.7742 382.415 -27.2248 394.975 -22.969 404.051C-18.5629 413.453 -11.278 422.078 -1.2392 425.738C8.29886 429.198 20.065 430.502 29.4528 425.688C45.4498 417.465 61.4717 409.241 77.4686 400.993C100.475 389.159 123.482 377.35 146.488 365.516C133.32 342.35 120.252 319.109 107.91 295.391C102.853 297.999 97.7965 300.581 92.7646 303.163Z" fill="#9BB167"/>
<path d="M171.573 352.63C181.186 347.69 188.996 341.147 193.227 330.867C196.982 321.766 197.433 309.206 193.177 300.13C188.771 290.728 181.486 282.103 171.447 278.443C161.909 274.983 170.246 261.219 160.858 266.057C149.893 271.698 118.85 289.775 107.885 295.391C120.227 319.134 133.27 342.375 146.463 365.516C148.967 364.238 151.495 362.934 153.998 361.655C159.856 358.647 165.714 355.638 171.573 352.63Z" fill="#CFD9B5"/>
<path d="M175.878 296.569C178.908 276.236 181.937 255.878 184.966 235.545C185.842 229.628 181.586 223.11 175.428 222.433C169.294 221.756 163.286 225.642 162.335 231.985C159.306 252.318 156.276 272.676 153.247 293.009C152.371 298.926 156.627 305.445 162.785 306.122C168.919 306.824 174.927 302.912 175.878 296.569Z" fill="#CFD9B5"/>
<path d="M176.98 296.87C179.258 281.502 181.561 266.108 183.839 250.739C185.191 241.613 190.048 227.222 178.757 222.182C174.777 220.402 169.87 221.129 166.34 223.586C161.959 226.62 161.284 231.183 160.558 236.147C158.279 251.541 155.976 266.91 153.698 282.304C153.473 283.758 155.701 284.36 155.901 282.906C157.754 270.495 159.581 258.085 161.434 245.674C161.884 242.691 162.31 239.707 162.761 236.749C163.161 234.066 163.261 231.133 164.638 228.701C167.467 223.737 174.577 221.856 179.333 225.116C185.016 229.027 183.864 235.27 182.988 241.161C182.112 247.103 181.211 253.07 180.335 259.012C178.482 271.423 176.655 283.808 174.802 296.219C174.552 297.723 176.755 298.325 176.98 296.87Z" fill="#4F3422"/>
<path d="M181.361 335.155C186.543 301.985 191.725 268.79 196.907 235.62C197.833 229.703 193.628 223.16 187.444 222.433C181.311 221.706 175.278 225.567 174.276 231.91C169.094 265.079 163.912 298.274 158.73 331.444C157.804 337.361 162.009 343.905 168.193 344.632C174.326 345.359 180.359 341.498 181.361 335.155Z" fill="#CFD9B5"/>
<path d="M188.27 302.386C190.173 289.549 192.101 276.713 194.003 263.901C194.954 257.483 195.906 251.065 196.857 244.646C197.533 240.033 199.16 234.843 197.783 230.205C195.63 222.934 187.995 219.324 181.035 222.107C177.531 223.511 174.752 226.419 173.675 230.055C171.948 235.896 171.698 242.565 170.796 248.608C168.618 263.174 166.465 277.716 164.287 292.282C164.062 293.736 166.29 294.338 166.49 292.884C168.543 279.07 170.596 265.255 172.649 251.441C173.6 245.047 174.226 238.529 175.503 232.186C176.73 226.093 182.963 221.756 189.172 223.862C196.607 226.394 196.106 234.066 195.155 240.309C194.153 246.978 193.177 253.647 192.176 260.291C190.123 274.105 188.07 287.92 186.017 301.759C185.842 303.213 188.045 303.84 188.27 302.386Z" fill="#4F3422"/>
<path d="M182.638 243.919C178.958 268.64 175.277 293.36 171.597 318.081C170.721 323.998 174.977 330.516 181.136 331.193C187.269 331.87 193.277 327.984 194.228 321.641C197.908 296.92 201.589 272.2 205.269 247.479C206.145 241.562 201.889 235.044 195.731 234.367C189.597 233.69 183.589 237.576 182.638 243.919Z" fill="#CFD9B5"/>
<path d="M193.402 334.954C197.483 307.601 201.538 280.248 205.619 252.895C206.395 247.755 207.321 242.941 204.142 238.378C201.238 234.216 196.356 232.386 191.4 233.464C179.834 235.971 180.56 250.137 179.183 259.413C177.13 273.278 175.052 287.142 172.999 301.032C172.774 302.486 175.002 303.088 175.202 301.634C176.729 291.304 178.282 280.975 179.809 270.645C180.635 265.004 181.486 259.363 182.312 253.747C182.988 249.184 182.863 242.841 185.992 239.206C190.699 233.765 199.436 234.392 202.915 240.81C205.644 245.875 203.291 252.87 202.49 258.235C200.662 270.52 198.835 282.83 197.007 295.115C195.055 308.177 193.127 321.265 191.174 334.327C190.974 335.781 193.177 336.408 193.402 334.954Z" fill="#4F3422"/>
<path d="M293.239 304.342C318.749 317.454 344.259 330.567 369.794 343.679C375.652 346.688 381.51 349.696 387.368 352.705C396.981 357.644 404.792 364.188 409.023 374.467C412.778 383.568 413.228 396.129 408.973 405.205C404.566 414.607 397.282 423.256 387.243 426.892C377.705 430.351 365.939 431.655 356.551 426.841C340.554 418.618 324.532 410.395 308.535 402.146C285.528 390.312 262.522 378.503 239.515 366.67C252.683 343.504 265.751 320.262 278.093 296.544C283.15 299.152 288.207 301.759 293.239 304.342Z" fill="#9BB167"/>
<path d="M214.431 353.783C204.818 348.844 197.007 342.3 192.776 332.021C189.021 322.92 188.571 310.359 192.826 301.283C197.232 291.881 204.517 283.231 214.556 279.596C224.094 276.136 215.758 262.372 225.146 267.211C236.111 272.852 267.153 290.928 278.118 296.57C265.776 320.312 252.733 343.554 239.54 366.695C237.037 365.416 234.509 364.112 232.005 362.834C226.147 359.825 220.289 356.817 214.431 353.783Z" fill="#CFD9B5"/>
<path d="M210.125 297.748C207.096 277.414 204.067 257.056 201.038 236.723C200.162 230.806 204.417 224.288 210.576 223.611C216.709 222.934 222.718 226.82 223.669 233.163C226.698 253.496 229.727 273.854 232.756 294.187C233.633 300.104 229.377 306.623 223.218 307.3C217.085 307.977 211.077 304.091 210.125 297.748Z" fill="#CFD9B5"/>
<path d="M211.227 297.447C209.374 285.036 207.547 272.651 205.694 260.24C204.818 254.298 203.917 248.331 203.04 242.389C202.164 236.498 200.988 230.255 206.695 226.344C211.452 223.059 218.537 224.965 221.391 229.929C222.768 232.311 222.868 235.294 223.268 237.977C223.719 240.96 224.144 243.944 224.595 246.902C226.448 259.313 228.275 271.723 230.128 284.134C230.353 285.588 232.556 284.961 232.331 283.532C230.052 268.138 227.749 252.769 225.471 237.375C224.72 232.411 224.069 227.848 219.688 224.814C216.158 222.357 211.252 221.63 207.271 223.41C195.956 228.45 200.837 242.816 202.189 251.967C204.467 267.336 206.771 282.73 209.049 298.098C209.224 299.502 211.452 298.876 211.227 297.447Z" fill="#4F3422"/>
<path d="M204.643 336.333C199.461 303.163 194.278 269.968 189.096 236.799C188.17 230.882 192.376 224.338 198.559 223.611C204.693 222.884 210.726 226.745 211.727 233.088C216.909 266.258 222.092 299.452 227.274 332.622C228.2 338.539 223.994 345.083 217.811 345.81C211.677 346.537 205.644 342.676 204.643 336.333Z" fill="#CFD9B5"/>
<path d="M199.936 302.937C197.883 289.123 195.831 275.309 193.778 261.469C192.827 255.051 191.875 248.632 190.924 242.214C189.973 235.796 189.046 227.673 196.807 225.04C202.64 223.059 209.074 226.945 210.376 232.837C211.777 239.306 212.378 246.05 213.33 252.594C215.382 266.408 217.435 280.223 219.488 294.037C219.713 295.491 221.916 294.864 221.691 293.435C219.788 280.599 217.861 267.762 215.958 254.95C215.007 248.532 214.056 242.114 213.104 235.695C212.478 231.559 211.677 227.973 208.298 225.216C202.39 220.377 193.427 221.68 189.497 228.324C187.144 232.311 187.694 236.222 188.345 240.584C189.297 247.003 190.248 253.421 191.199 259.839C193.377 274.406 195.53 288.948 197.708 303.514C197.933 305.018 200.162 304.392 199.936 302.937Z" fill="#4F3422"/>
<path d="M203.366 245.097C207.046 269.818 210.726 294.538 214.406 319.259C215.282 325.176 211.026 331.694 204.868 332.371C198.735 333.048 192.726 329.162 191.775 322.819C188.095 298.099 184.415 273.378 180.735 248.657C179.859 242.74 184.115 236.222 190.273 235.545C196.406 234.868 202.415 238.754 203.366 245.097Z" fill="#CFD9B5"/>
<path d="M194.804 335.505C191.249 311.662 187.695 287.794 184.165 263.951C183.364 258.511 181.786 252.644 181.786 247.153C181.761 239.807 188.871 234.743 195.756 237.375C201.814 239.707 202.29 245.423 203.116 251.014C203.917 256.43 204.718 261.845 205.544 267.261C207.296 279.094 209.074 290.928 210.826 302.787C211.052 304.241 213.255 303.614 213.029 302.185C211.202 289.975 209.399 277.766 207.572 265.531C206.696 259.589 205.794 253.647 204.918 247.705C204.142 242.565 202.64 238.127 197.683 235.695C187.544 230.731 178.357 239.682 179.784 249.936C181.661 263.324 183.764 276.662 185.742 290.026C188.02 305.394 190.323 320.738 192.601 336.107C192.802 337.586 195.03 336.96 194.804 335.505Z" fill="#4F3422"/>
<path d="M5.64503 349.245C35.0353 333.55 64.4506 317.855 93.8409 302.16C97.9965 299.929 102.152 297.723 106.308 295.491C107.61 294.789 106.458 292.809 105.156 293.511C75.7661 309.205 46.3508 324.9 16.9605 340.595C12.8048 342.826 8.64915 345.033 4.49346 347.264C3.16664 347.966 4.34325 349.947 5.64503 349.245Z" fill="#4F3422"/>
<path d="M365.288 340.093C339.978 326.931 314.694 313.743 289.384 300.58C285.854 298.75 282.324 296.895 278.769 295.065C277.468 294.388 276.291 296.368 277.618 297.045C302.927 310.208 328.212 323.396 353.522 336.558C357.052 338.388 360.581 340.244 364.136 342.074C365.438 342.751 366.59 340.77 365.288 340.093Z" fill="#4F3422"/>
<path d="M407.5 455.541C382.19 442.379 277.659 385.817 252.349 372.655C248.819 370.824 245.29 368.969 241.735 367.139C240.433 366.462 239.256 368.443 240.583 369.12C265.893 382.282 291.177 395.47 316.487 408.632C320.017 410.463 402.794 455.692 406.348 457.522C407.65 458.199 408.802 456.218 407.5 455.541Z" fill="#4F3422"/>
<path d="M-21.428 455.541C3.8817 442.379 108.413 385.817 133.723 372.655C137.253 370.824 140.783 368.969 144.337 367.139C145.639 366.462 146.816 368.443 145.489 369.12C120.179 382.282 94.8947 395.47 69.585 408.632C66.0552 410.463 -16.7215 455.692 -20.2764 457.522C-21.5782 458.199 -22.7298 456.218 -21.428 455.541Z" fill="#4F3422"/>
<path d="M22.8186 326.73C28.226 328.21 33.6334 329.664 39.0659 331.143C40.4928 331.519 41.0936 329.313 39.6667 328.937C34.2593 327.457 28.8519 326.003 23.4194 324.524C21.9925 324.123 21.3917 326.329 22.8186 326.73Z" fill="#4F3422"/>
<path d="M342.281 329.137C346.612 327.783 350.843 326.154 354.973 324.248C356.3 323.647 355.149 321.666 353.822 322.268C349.866 324.073 345.811 325.627 341.68 326.931C340.278 327.357 340.879 329.589 342.281 329.137Z" fill="#4F3422"/>
<path d="M292.964 115.878C297.169 125.029 308.735 124.528 315.77 119.213C323.305 113.496 330.891 101.236 327.586 91.4836C325.133 84.2379 314.068 79.8504 309.887 88.2243C308.084 91.8096 309.511 96.0968 312.29 98.7795C315.845 102.189 321.277 102.766 325.959 102.916C337.049 103.292 350.017 98.3031 351.719 85.8927C352.12 83.0094 347.714 81.7558 347.313 84.6642C346.061 93.6649 337.55 97.927 329.213 98.3031C325.258 98.4786 320.351 98.5037 316.821 96.4227C314.894 95.2945 313.292 93.2136 313.842 90.932C314.393 88.5753 317.122 87.7981 319.225 88.475C323.531 89.879 324.156 95.2945 323.43 99.0552C322.554 103.568 320.026 108.031 317.122 111.541C312.39 117.232 301.25 122.948 296.944 113.522C295.667 110.889 291.737 113.221 292.964 115.878Z" fill="#4F3422"/>
<path d="M46.0504 54.7537C45.2243 65.5847 54.2367 74.9614 65.1516 73.8834C75.8162 72.8053 83.0762 62.3003 80.3474 51.8956C79.346 48.1098 76.1667 43.647 71.8107 46.104C67.4548 48.561 66.5285 55.1047 67.1293 59.5424C68.8066 71.8275 80.2222 78.1205 91.0371 81.3296C93.8659 82.1821 95.0676 77.7444 92.2637 76.917C85.5045 74.9113 78.2696 71.9528 74.2641 65.8103C72.2613 62.7265 71.0597 58.7903 71.6605 55.0797C71.7857 54.3526 71.9609 53.6004 72.2363 52.9235C72.5367 52.0961 73.8135 50.1155 75.0151 50.6921C76.1166 51.2186 76.3419 55.4808 76.3419 56.2831C76.392 63.7043 70.3838 69.5961 62.9736 69.3955C55.238 69.195 50.081 62.1749 50.6317 54.7537C50.857 51.8204 46.2757 51.8204 46.0504 54.7537Z" fill="#4F3422"/>
<path d="M50.0309 229.302C55.8639 234.818 65.1266 235.846 71.9609 231.484C75.691 229.102 77.9441 225.341 79.4962 221.305C81.0484 217.168 82.951 211.602 80.4726 207.415C78.7452 204.481 74.6897 202.576 71.5353 204.381C68.3309 206.211 67.8803 210.348 68.8817 213.557C71.3351 221.505 80.5477 225.466 88.2833 225.065C99.2733 224.489 107.585 216.165 113.518 207.641C115.195 205.209 111.24 202.927 109.562 205.334C105.231 211.552 99.6238 217.669 92.1135 219.825C86.0052 221.58 77.9942 220.051 74.3392 214.41C73.6632 213.357 72.5868 211.451 72.9623 210.123C74.0638 206.186 76.367 209.496 76.7925 210.875C77.1931 212.178 76.9928 213.382 76.7174 214.686C75.9664 218.446 74.4644 222.784 71.8107 225.642C66.9791 230.832 58.2922 230.807 53.2603 226.018C51.1324 224.012 47.8779 227.272 50.0309 229.302Z" fill="#4F3422"/>
<path d="M241.168 49.589C237.012 42.9701 237.588 33.7688 243.571 28.3784C248.728 23.7402 261.07 21.584 265.226 28.8297C266.628 31.2867 265.601 34.6212 262.247 33.8942C259.643 33.3175 258.466 30.6349 258.266 28.2029C257.941 24.392 259.393 20.4307 261.32 17.2215C265.226 10.7531 272.11 6.3154 279.62 5.58833C282.524 5.31254 282.549 0.72444 279.62 1.00023C270.433 1.85266 262.147 6.9422 257.365 14.8899C253.359 21.5339 250.631 34.5962 260.169 38.031C263.523 39.2344 267.554 38.4572 269.507 35.2731C271.96 31.3118 270.107 26.473 266.803 23.6649C259.768 17.7481 248.578 18.7008 241.593 24.0912C233.157 30.6098 231.655 43.0453 237.212 51.8956C238.79 54.4027 242.745 52.0961 241.168 49.589Z" fill="#4F3422"/>
</svg>
