<svg width="375" height="546" viewBox="0 0 375 546" fill="none" xmlns="http://www.w3.org/2000/svg">
<path d="M144.87 50.8193H92.9454C88.5158 50.8193 85.0706 56.2204 85.0706 63.0945V145.829C85.0706 152.703 88.5158 158.104 92.9454 158.104C97.375 158.104 100.82 163.505 100.82 170.38V195.175C100.82 202.05 104.265 207.451 108.695 207.451H156.19" stroke="#4F3422" stroke-width="2.4203" stroke-miterlimit="10" stroke-linecap="round" stroke-linejoin="round"/>
<path d="M-0.568037 287.73H-52.4926C-56.9222 287.73 -60.3674 292.64 -60.3674 298.778V372.429C-60.3674 378.566 -56.9222 383.476 -52.4926 383.476C-48.063 383.476 -44.6178 388.386 -44.6178 394.524V416.619C-44.6178 422.757 -41.1726 427.667 -36.743 427.667H10.5059" stroke="#4F3422" stroke-width="2.4203" stroke-miterlimit="10" stroke-linecap="round" stroke-linejoin="round"/>
<path d="M146.593 389.123H-22.47C-34.0361 389.123 -43.6335 379.548 -43.6335 368.01V229.055C-43.6335 217.516 -34.0361 207.941 -22.47 207.941H146.593C158.159 207.941 167.756 217.516 167.756 229.055V368.01C167.756 379.794 158.405 389.123 146.593 389.123Z" fill="#4F3422"/>
<path d="M14.6893 389.123H-22.47C-34.0361 389.123 -43.6335 379.548 -43.6335 368.01V229.055C-43.6335 217.516 -34.0361 207.941 -22.47 207.941H14.6893C26.2555 207.941 35.8529 217.516 35.8529 229.055V368.01C35.8529 379.794 26.2555 389.123 14.6893 389.123Z" fill="#926247"/>
<path d="M-31.575 368.501V228.809C-31.575 223.163 -26.8993 218.498 -21.2393 218.498H13.9513C19.6114 218.498 24.287 223.163 24.287 228.809V368.501C24.287 374.147 19.6114 378.812 13.9513 378.812H-21.4853C-27.1454 378.566 -31.575 374.147 -31.575 368.501Z" fill="#4F3422"/>
<path d="M131.089 220.954H165.295L208.114 110.231H173.908L131.089 220.954Z" fill="#4F3422"/>
<path d="M110.418 220.954H132.812L175.631 110.231H153.237L110.418 220.954Z" fill="#926247"/>
<path d="M215.989 135.518H132.812C124.445 135.518 117.8 128.89 117.8 120.542V117.842C117.8 109.495 124.445 102.866 132.812 102.866H215.989C224.356 102.866 231.001 109.495 231.001 117.842V120.542C231.001 128.89 224.356 135.518 215.989 135.518Z" fill="#D6C2B8"/>
<path d="M134.78 135.518H132.073C124.199 135.518 117.8 129.135 117.8 121.279V117.105C117.8 109.249 124.199 102.866 132.073 102.866H134.78C142.655 102.866 149.053 109.249 149.053 117.105V121.279C149.053 129.135 142.655 135.518 134.78 135.518Z" fill="#D6C2B8"/>
<path d="M304.335 120.051H51.8486C40.2825 120.051 30.6851 110.722 30.6851 98.9381V46.1548C30.6851 34.6161 40.2825 25.0415 51.8486 25.0415H304.581C316.147 25.0415 325.745 34.6161 325.745 46.1548V98.9381C325.499 110.722 316.147 120.051 304.335 120.051Z" fill="#C0A091"/>
<path d="M256.102 25.0415H213.529C226.325 25.0415 236.661 35.3527 236.661 48.1188V96.9741C236.661 109.74 226.325 120.051 213.529 120.051H256.102C268.898 120.051 279.234 109.74 279.234 96.9741V48.1188C279.234 35.3527 268.898 25.0415 256.102 25.0415Z" fill="#AC836C"/>
<path d="M120.261 120.051H51.8486C40.2825 120.051 30.6851 110.722 30.6851 98.9381V46.1548C30.6851 34.6161 40.2825 25.0415 51.8486 25.0415H120.261C131.827 25.0415 141.425 34.6161 141.425 46.1548V98.9381C141.425 110.722 132.073 120.051 120.261 120.051Z" fill="#AC836C"/>
<path d="M47.1731 95.2558V50.0831C47.1731 44.4365 51.8488 39.772 57.5088 39.772H114.601C120.261 39.772 124.937 44.4365 124.937 50.0831V95.2558C124.937 100.902 120.261 105.567 114.601 105.567H57.5088C51.8488 105.321 47.1731 100.902 47.1731 95.2558Z" fill="#C0A091"/>
<path d="M167.756 76.106V70.2139C167.756 54.5016 180.552 41.981 196.056 41.981H304.827C320.577 41.981 333.127 54.7471 333.127 70.2139V76.106C333.127 91.8182 320.33 104.339 304.827 104.339H196.056C180.306 104.339 167.756 91.5727 167.756 76.106Z" fill="#926247"/>
<path d="M308.765 93.0456H192.365C184.982 93.0456 179.322 87.1535 179.322 80.0339V66.5312C179.322 59.1661 185.228 53.5195 192.365 53.5195H308.765C316.147 53.5195 321.807 59.4116 321.807 66.5312V80.0339C321.807 87.1535 315.901 93.0456 308.765 93.0456Z" fill="#4F3422"/>
<path d="M269.636 72.4234C269.636 78.8065 264.469 83.9621 258.07 83.9621C251.672 83.9621 246.504 78.8065 246.504 72.4234C246.504 66.0403 251.672 60.8848 258.07 60.8848C264.469 60.8848 269.636 66.0403 269.636 72.4234Z" fill="#D6C2B8"/>
<path d="M229.77 72.4234C229.77 78.8065 224.602 83.9621 218.204 83.9621C211.806 83.9621 206.638 78.8065 206.638 72.4234C206.638 66.0403 211.806 60.8848 218.204 60.8848C224.602 60.8848 229.77 66.0403 229.77 72.4234Z" fill="#D6C2B8"/>
<path d="M310.979 72.4234C310.979 78.8065 305.811 83.9621 299.413 83.9621C293.015 83.9621 287.847 78.8065 287.847 72.4234C287.847 66.0403 293.015 60.8848 299.413 60.8848C305.811 60.8848 310.979 66.0403 310.979 72.4234Z" fill="#D6C2B8"/>
<path d="M96.6365 95.2556H75.473C65.6295 95.2556 57.5085 87.154 57.5085 77.3339V66.7772C57.5085 56.9571 65.6295 48.8555 75.473 48.8555H96.6365C106.48 48.8555 114.601 56.9571 114.601 66.7772V77.3339C114.601 87.3995 106.726 95.2556 96.6365 95.2556Z" fill="#4F3422"/>
<path d="M86.0548 95.2556H75.473C65.6295 95.2556 57.5085 87.154 57.5085 77.3339V66.7772C57.5085 56.9571 65.6295 48.8555 75.473 48.8555H86.0548C95.8983 48.8555 104.019 56.9571 104.019 66.7772V77.3339C104.019 87.3995 95.8983 95.2556 86.0548 95.2556Z" fill="#D6C2B8"/>
<path d="M80.6408 85.4358C73.2582 85.4358 67.3521 79.5437 67.3521 72.1786C67.3521 64.8135 73.2582 58.9214 80.6408 58.9214C88.0235 58.9214 93.9296 64.8135 93.9296 72.1786C93.9296 79.5437 88.0235 85.4358 80.6408 85.4358Z" fill="#4F3422"/>
<path d="M80.6406 72.1783V11.0479" stroke="#4F3422" stroke-width="2.4203" stroke-miterlimit="10" stroke-linecap="round" stroke-linejoin="round"/>
<path d="M89.5001 8.83813C89.5001 13.7482 85.5627 17.6763 80.6409 17.6763C75.7191 17.6763 71.7817 13.7482 71.7817 8.83813C71.7817 3.92806 75.9652 0 80.6409 0C85.5627 0 89.5001 3.92806 89.5001 8.83813Z" fill="#4F3422"/>
<path d="M216.482 369.483H84.3325C63.1689 387.896 49.8801 414.901 49.8801 445.098C49.8801 500.582 94.9142 545.509 150.53 545.509C206.146 545.509 251.18 500.582 251.18 445.098C251.18 415.147 237.645 387.896 216.482 369.483Z" fill="#4F3422"/>
<path d="M162.588 423.739H95.6524C85.0706 433.068 78.1802 446.817 78.1802 462.038C78.1802 490.025 101.066 512.857 129.12 512.857C157.174 512.857 180.061 490.025 180.061 462.038C180.061 446.817 173.17 433.068 162.588 423.739Z" fill="#926247"/>
<path d="M155.944 432.332H102.297C93.6837 439.943 88.2698 450.745 88.2698 463.265C88.2698 485.852 106.726 504.265 129.366 504.265C152.007 504.265 170.463 485.852 170.463 463.265C170.217 450.99 164.557 439.943 155.944 432.332Z" fill="#4F3422"/>
<path d="M216.481 369.483H155.452C186.213 383.477 207.622 414.165 207.622 450.254C207.622 499.109 168.002 538.88 118.785 538.88C116.816 538.88 114.601 538.88 112.632 538.635C124.198 543.299 136.995 546 150.284 546C205.9 546 250.934 501.073 250.934 445.589C251.18 415.147 237.645 387.896 216.481 369.483Z" fill="#926247"/>
<path d="M49.634 482.169H250.934C256.594 482.169 261.762 479.96 265.945 476.277C298.183 445.098 317.87 400.662 316.393 351.807C313.44 263.917 240.844 192.966 152.745 191.739C59.9697 190.511 -15.5793 265.144 -15.5793 357.453C-15.5793 404.099 3.86161 446.326 34.8687 476.277C38.8061 480.205 44.2201 482.169 49.634 482.169Z" fill="#C0A091"/>
<path d="M49.6339 482.169H141.917C91.2227 459.337 55.7861 408.272 55.7861 349.106C55.7861 268.581 121.245 203.277 201.962 203.277C205.408 203.277 208.853 203.522 212.298 203.768C190.15 194.93 165.541 190.511 139.702 191.984C56.7704 197.139 -10.4116 263.916 -15.5795 346.897C-18.7786 397.716 1.1545 443.87 34.6225 476.277C38.806 480.205 44.2199 482.169 49.6339 482.169Z" fill="#AC836C"/>
<path d="M317.378 364.818H-16.5636C-20.2549 364.818 -23.208 361.872 -23.208 358.19V356.962C-23.208 353.28 -20.2549 350.333 -16.5636 350.333H317.378C321.069 350.333 324.022 353.28 324.022 356.962V358.19C324.022 361.627 321.069 364.818 317.378 364.818Z" fill="#4F3422"/>
<path d="M84.8247 303.933C96.6489 303.933 106.234 294.371 106.234 282.575C106.234 270.778 96.6489 261.216 84.8247 261.216C73.0005 261.216 63.415 270.778 63.415 282.575C63.415 294.371 73.0005 303.933 84.8247 303.933Z" fill="#926247"/>
<path d="M199.748 250.168C209.099 251.641 218.697 253.114 228.048 254.587C216.482 328.729 125.429 349.351 81.6257 300.251C74.4892 292.395 74.7352 282.82 82.1179 276.928C88.024 273.245 95.1606 272.754 102.543 280.61C132.32 312.526 192.119 299.269 199.748 250.168Z" fill="#4F3422"/>
<path d="M101.313 315.226C105.988 307.125 110.664 299.269 115.094 291.167" stroke="#926247" stroke-width="2.4203" stroke-miterlimit="10" stroke-linecap="round" stroke-linejoin="round"/>
<path d="M126.414 324.556C128.382 315.472 130.105 306.634 132.074 297.55" stroke="#926247" stroke-width="2.4203" stroke-miterlimit="10" stroke-linecap="round" stroke-linejoin="round"/>
<path d="M152.991 325.538C152.007 316.454 151.022 307.371 150.038 298.042" stroke="#926247" stroke-width="2.4203" stroke-miterlimit="10" stroke-linecap="round" stroke-linejoin="round"/>
<path d="M178.584 318.909C174.893 310.562 170.955 302.215 167.264 293.622" stroke="#926247" stroke-width="2.4203" stroke-miterlimit="10" stroke-linecap="round" stroke-linejoin="round"/>
<path d="M201.224 304.425C195.072 297.55 188.674 290.676 182.522 283.802" stroke="#926247" stroke-width="2.4203" stroke-miterlimit="10" stroke-linecap="round" stroke-linejoin="round"/>
<path d="M218.205 282.574C210.084 278.155 201.963 273.736 193.842 269.072" stroke="#926247" stroke-width="2.4203" stroke-miterlimit="10" stroke-linecap="round" stroke-linejoin="round"/>
<path d="M192.857 172.344C195.81 169.397 200.486 169.643 203.439 172.589C206.392 175.535 206.146 180.2 203.193 183.146C192.611 193.211 192.365 209.906 202.701 220.462C212.791 231.019 229.525 231.264 240.106 220.953C250.688 210.888 250.934 194.193 240.598 183.637C237.645 180.691 237.891 176.026 240.845 173.08C243.798 170.134 248.473 170.38 251.426 173.326C267.422 189.774 266.93 215.798 250.442 231.755C233.954 247.713 207.869 247.222 191.873 230.773C176.123 214.57 176.369 188.301 192.857 172.344Z" fill="#4F3422"/>
<path d="M195.564 216.289L199.256 212.852C210.33 202.05 228.294 202.295 239.122 213.588L242.567 217.271C253.395 228.318 253.149 246.24 241.829 257.042L238.138 260.479C227.064 271.282 209.099 271.036 198.271 259.743L194.826 256.06C184.244 244.767 184.49 227.091 195.564 216.289Z" fill="#D6C2B8"/>
<path d="M208.607 225.863C214.513 220.217 223.865 220.462 229.525 226.109C235.185 232.001 234.938 241.33 229.278 246.977C223.618 252.623 214.021 252.378 208.361 246.731C202.701 240.839 202.701 231.51 208.607 225.863Z" fill="#4F3422"/>
<path d="M260.039 306.88C271.863 306.88 281.449 297.317 281.449 285.521C281.449 273.725 271.863 264.162 260.039 264.162C248.215 264.162 238.629 273.725 238.629 285.521C238.629 297.317 248.215 306.88 260.039 306.88Z" fill="#926247"/>
<path d="M372.994 250.168C382.345 251.641 391.942 253.114 401.294 254.587C389.728 328.729 298.675 349.351 254.871 300.251C247.735 292.395 247.981 282.82 255.363 276.928C261.27 273.245 268.406 272.754 275.789 280.61C305.565 312.526 365.365 299.269 372.994 250.168Z" fill="#4F3422"/>
<path d="M274.558 315.226C279.234 307.125 283.91 299.269 288.339 291.167" stroke="#926247" stroke-width="2.4203" stroke-miterlimit="10" stroke-linecap="round" stroke-linejoin="round"/>
<path d="M299.659 324.556C301.628 315.472 303.351 306.634 305.319 297.55" stroke="#926247" stroke-width="2.4203" stroke-miterlimit="10" stroke-linecap="round" stroke-linejoin="round"/>
<path d="M326.237 325.538C325.253 316.454 324.268 307.371 323.284 298.042" stroke="#926247" stroke-width="2.4203" stroke-miterlimit="10" stroke-linecap="round" stroke-linejoin="round"/>
<path d="M351.83 318.909C348.139 310.562 344.201 302.215 340.51 293.622" stroke="#926247" stroke-width="2.4203" stroke-miterlimit="10" stroke-linecap="round" stroke-linejoin="round"/>
<path d="M374.47 304.425C368.318 297.55 361.92 290.676 355.768 283.802" stroke="#926247" stroke-width="2.4203" stroke-miterlimit="10" stroke-linecap="round" stroke-linejoin="round"/>
<path d="M391.45 282.574C383.329 278.155 375.208 273.736 367.087 269.072" stroke="#926247" stroke-width="2.4203" stroke-miterlimit="10" stroke-linecap="round" stroke-linejoin="round"/>
<path d="M366.103 172.344C369.056 169.397 373.732 169.643 376.685 172.589C379.638 175.535 379.392 180.2 376.439 183.146C365.857 193.211 365.611 209.906 375.947 220.462C386.036 231.019 402.77 231.264 413.352 220.953C423.934 210.888 424.18 194.193 413.844 183.637C410.891 180.691 411.137 176.026 414.09 173.08C417.043 170.134 421.719 170.38 424.672 173.326C440.668 189.774 440.176 215.798 423.688 231.755C407.2 247.713 381.115 247.222 365.119 230.773C349.369 214.57 349.615 188.301 366.103 172.344Z" fill="#4F3422"/>
<path d="M368.81 216.289L372.501 212.852C383.575 202.05 401.54 202.295 412.368 213.588L415.813 217.271C426.641 228.318 426.395 246.24 415.075 257.042L411.629 260.234C400.555 271.036 382.591 270.791 371.763 259.497L368.318 255.815C357.49 244.767 357.736 227.091 368.81 216.289Z" fill="#D6C2B8"/>
<path d="M127.644 391.824V440.679" stroke="#AC836C" stroke-width="2.4203" stroke-miterlimit="10" stroke-linecap="round" stroke-linejoin="round"/>
<path d="M139.702 391.824V440.679" stroke="#AC836C" stroke-width="2.4203" stroke-miterlimit="10" stroke-linecap="round" stroke-linejoin="round"/>
<path d="M151.76 391.824V440.679" stroke="#AC836C" stroke-width="2.4203" stroke-miterlimit="10" stroke-linecap="round" stroke-linejoin="round"/>
<path d="M163.819 391.824V440.679" stroke="#AC836C" stroke-width="2.4203" stroke-miterlimit="10" stroke-linecap="round" stroke-linejoin="round"/>
<path d="M175.877 391.824V440.679" stroke="#AC836C" stroke-width="2.4203" stroke-miterlimit="10" stroke-linecap="round" stroke-linejoin="round"/>
<path d="M187.936 391.824V440.679" stroke="#AC836C" stroke-width="2.4203" stroke-miterlimit="10" stroke-linecap="round" stroke-linejoin="round"/>
<path d="M199.994 391.824V440.679" stroke="#AC836C" stroke-width="2.4203" stroke-miterlimit="10" stroke-linecap="round" stroke-linejoin="round"/>
<path d="M200.24 391.824V440.679" stroke="#AC836C" stroke-width="2.4203" stroke-miterlimit="10" stroke-linecap="round" stroke-linejoin="round"/>
<path d="M212.298 391.824V440.679" stroke="#AC836C" stroke-width="2.4203" stroke-miterlimit="10" stroke-linecap="round" stroke-linejoin="round"/>
<path d="M224.356 391.824V440.679" stroke="#AC836C" stroke-width="2.4203" stroke-miterlimit="10" stroke-linecap="round" stroke-linejoin="round"/>
<path d="M236.415 391.824V440.679" stroke="#AC836C" stroke-width="2.4203" stroke-miterlimit="10" stroke-linecap="round" stroke-linejoin="round"/>
<path d="M248.473 391.824V440.679" stroke="#AC836C" stroke-width="2.4203" stroke-miterlimit="10" stroke-linecap="round" stroke-linejoin="round"/>
<path d="M260.531 391.824V440.679" stroke="#AC836C" stroke-width="2.4203" stroke-miterlimit="10" stroke-linecap="round" stroke-linejoin="round"/>
<path d="M272.59 391.824V440.679" stroke="#AC836C" stroke-width="2.4203" stroke-miterlimit="10" stroke-linecap="round" stroke-linejoin="round"/>
</svg>
