<svg width="375" height="556" viewBox="0 0 375 556" fill="none" xmlns="http://www.w3.org/2000/svg">
<mask id="mask0_21994_3625" style="mask-type:luminance" maskUnits="userSpaceOnUse" x="-106" y="13" width="729" height="498">
<path d="M307.087 42.4405C205.222 -3.90893 64.6584 3.5856 29.7095 71.9886C7.48609 115.42 35.98 172.12 5.24222 209.716C-14.6759 234.073 -25.096 237.022 -49.5018 256.864C-70.4035 273.85 -88.5695 290.466 -98.4056 316.667C-112.084 353.034 -106.336 394.96 -84.9424 426.965C-66.5305 454.517 -34.5325 468.769 -4.68608 480.195C37.7321 496.413 84.1461 503.293 129.361 501.296C191.79 498.563 253.665 477.123 315.602 485.417C345.663 489.44 374.403 500.375 404.157 506.303C461.514 517.698 532.426 508.33 566.76 454.271C581.207 431.511 586.371 404.605 583.143 377.913C579.578 348.488 571.125 318.202 577.149 288.501C583.85 255.512 607.887 228.698 618.092 196.662C635.551 141.897 604.291 76.1351 550.93 55.3716C529.967 47.2013 507.067 45.4813 484.567 45.3584C424.444 44.9898 361.893 67.3813 307.087 42.4405Z" fill="white"/>
</mask>
<g mask="url(#mask0_21994_3625)">
<path d="M678 -31H-149V531.458H678V-31Z" fill="#F5F5F5"/>
</g>
<mask id="mask1_21994_3625" style="mask-type:luminance" maskUnits="userSpaceOnUse" x="-106" y="13" width="729" height="498">
<path d="M307.087 42.4405C205.222 -3.90893 64.6584 3.5856 29.7095 71.9886C7.48609 115.42 35.98 172.12 5.24222 209.716C-14.6759 234.073 -25.096 237.022 -49.5018 256.864C-70.4035 273.85 -88.5695 290.466 -98.4056 316.667C-112.084 353.034 -106.336 394.96 -84.9424 426.965C-66.5305 454.517 -34.5325 468.769 -4.68608 480.195C37.7321 496.413 84.1461 503.293 129.361 501.296C191.79 498.563 253.665 477.123 315.602 485.417C345.663 489.44 374.403 500.375 404.157 506.303C461.514 517.698 532.426 508.33 566.76 454.271C581.207 431.511 586.371 404.605 583.143 377.913C579.578 348.488 571.125 318.202 577.149 288.501C583.85 255.512 607.887 228.698 618.092 196.662C635.551 141.897 604.291 76.1351 550.93 55.3716C529.967 47.2013 507.067 45.4813 484.567 45.3584C424.444 44.9898 361.893 67.3813 307.087 42.4405Z" fill="white"/>
</mask>
<g mask="url(#mask1_21994_3625)">
<path d="M80.4575 408.751C65.2423 447.145 54.5762 494.631 45.2627 531.459L549.362 539.967C561.995 497.273 566.575 436.825 558.368 392.841C555.909 379.694 551.36 366.794 546.719 354.6C494.495 396.956 420.54 426.996 351.811 435.903C260.796 447.913 164.433 444.872 80.4575 408.751Z" fill="#736B66"/>
</g>
<path d="M88.1728 97.5437L78.306 102.919C72.3121 107.403 73.1113 108.847 71.7281 116.219L68.2547 138.119C68.1318 138.856 67.056 138.856 66.933 138.119L63.5211 116.341C62.1687 109.001 62.2916 107.403 56.3592 102.919L47.0149 97.5437C46.6461 97.2673 46.6461 96.7451 47.0149 96.4687L57.5887 91.4314C63.4904 86.947 63.1522 83.9676 64.5047 76.6573L66.933 55.9552C67.056 55.2181 68.1318 55.2181 68.2547 55.9552L71.1133 77.3945C72.4351 84.6433 73.1728 87.6841 79.0437 92.1686L88.2035 96.438C88.5417 96.7451 88.5417 97.298 88.1728 97.5437Z" fill="#C9C7C5"/>
<path d="M127.333 149.913L120.478 153.661C116.298 156.763 116.882 157.777 115.898 162.906L113.501 178.11C113.408 178.632 112.671 178.601 112.578 178.11L110.212 162.998C109.259 157.899 109.382 156.794 105.232 153.661L98.7772 149.913C98.5313 149.729 98.5313 149.361 98.7772 149.176L106.124 145.675C110.212 142.542 109.996 140.484 110.919 135.416L112.609 121.041C112.701 120.519 113.439 120.519 113.531 121.041L115.499 135.938C116.421 140.975 116.943 143.064 121.001 146.197L127.363 149.176C127.579 149.361 127.579 149.729 127.333 149.913Z" fill="#C9C7C5"/>
<path d="M223.388 169.479C202.855 156.425 196.185 126.999 209.034 106.021C221.882 85.0423 252.251 75.6742 274.597 85.8409C283.511 89.8953 291.626 96.6834 301.616 96.7449C311.452 96.8063 319.997 90.2639 328.942 86.0252C346.093 77.9164 368.225 78.6843 381.841 90.8168C388.542 96.7756 392.969 105.069 400.53 110.014C410.243 116.372 423.276 116.034 435.11 113.976C446.944 111.918 458.778 108.386 470.674 109.215C482.538 110.045 493.85 115.389 501.596 123.866C512.139 135.385 516.903 152.739 531.596 158.913C537.528 161.401 544.26 161.616 550.776 162.353C576.658 165.24 602.447 178.601 612.344 201.484C622.58 225.135 621.166 267.491 595.069 273.696C536.76 287.518 591.504 319.4 528.246 343.051C515.766 347.72 497.262 318.448 486.104 311.967C479.065 307.882 474.608 300.787 468.399 295.626C459.362 288.04 446.452 284.845 434.403 287.18C404.403 293.046 384.792 329.413 354.423 328.215C347.446 327.939 339.546 324.13 339.3 317.434C339.177 314.363 340.714 311.445 342.251 308.711C349.444 295.903 357.774 282.88 358.542 268.536C359.28 254.406 336.565 259.536 324.362 251.98C311.698 244.148 282.835 268.689 273.399 257.417C268.019 250.997 260.212 229.681 256.032 222.463C247.364 207.443 260.304 167.083 242.599 171.567L223.388 169.479Z" fill="#3F3C36"/>
<path d="M206.329 140.023C200.98 136.367 192.989 138.64 187.548 141.159C180.939 144.231 178.019 149.913 179.648 157.07C180.693 161.646 183.275 166.131 182.353 170.953C181.093 177.618 174.822 175.56 170.15 177.68C167.691 178.785 166.062 180.843 165.109 183.3C164.341 185.266 162.988 190.426 163.88 192.116C163.019 190.519 160.591 191.931 161.452 193.529C162.159 194.88 163.726 195.832 165.263 195.064C167.384 194.02 166.523 191.071 166.708 189.136C166.923 186.925 167.353 184.437 168.613 182.563C170.488 179.799 173.439 179.799 176.39 179.338C179.249 178.877 181.831 178.14 183.552 175.683C187.948 169.356 183.306 162.045 182.169 155.595C181.093 149.421 184.566 145.428 189.976 143.248C194.402 141.466 200.704 139.623 204.915 142.511C206.421 143.463 207.835 141.036 206.329 140.023Z" fill="#3F3C36"/>
<path d="M205.007 136.829C197.569 134.095 189.792 129.365 181.616 132.129C179.003 133.02 176.544 134.678 175.13 137.074C174.269 138.549 173.9 140.207 173.655 141.866C173.47 142.972 173.624 145.122 172.948 146.074C171.288 147.087 169.597 148.07 167.937 149.084C167.476 148.777 166.984 148.593 166.462 148.531C159.976 148.316 156.995 152.923 155.273 158.667C154.136 162.507 153.583 166.715 151.093 169.97C147.773 174.301 142.025 175.561 137.015 173.748C136.247 173.472 135.57 174.086 135.294 174.731C134.648 176.298 134.802 177.373 135.786 178.755C136.831 180.199 139.29 178.816 138.214 177.342C138.152 176.728 138.091 176.113 138.029 175.499C137.445 175.837 136.861 176.144 136.308 176.482C142.271 178.601 149.279 176.943 153.275 171.875C157.456 166.561 156.318 155.012 162.804 152.033C166.4 150.374 169.689 153.845 173.193 150.958C175.898 148.715 175.898 145.245 176.544 142.112C179.495 127.983 196.062 136.583 204.3 139.593C205.991 140.146 206.698 137.443 205.007 136.829Z" fill="#3F3C36"/>
<path d="M279.515 310.001C282.989 330.919 303.46 336.294 322.026 335.403C345.54 334.297 368.225 326.342 387.62 313.165C396.903 306.868 405.417 299.497 413.286 291.511C415.868 288.9 433.85 264.881 435.479 265.188C409.844 260.304 383.163 259.567 357.805 259.598C333.03 259.628 310.591 259.29 289.567 260.181C280.776 275.17 276.565 292.064 279.515 310.001Z" fill="#C9C7C5"/>
<path d="M481.34 279.87C466.831 272.836 451.34 268.229 435.479 265.219C433.819 264.911 414.331 290.559 411.503 293.323C402.559 302.169 392.784 310.186 382.057 316.79C361.155 329.659 332.2 336.417 308.409 334.113C273.214 330.673 274.72 285.521 289.567 260.212C252.681 261.778 220.222 267.154 187.579 285.091C148.419 306.623 117.712 343.051 95.7649 383.81C91.6461 391.489 87.8038 399.874 84.2075 408.751C169.904 444.872 268.204 447.913 361.063 435.903C431.206 426.996 493.42 396.956 546.719 354.6C534.393 322.84 513.86 295.596 481.34 279.87Z" fill="#736B66"/>
<path d="M377.2 263.314L254.71 152.125C239.095 158.298 221.636 154.459 209.157 143.77C201.073 173.994 194.372 225.135 226.032 261.625L252.036 231.831C252.036 231.831 265.714 265.618 279.239 298.821C291.903 329.905 331.831 338.566 356.268 315.591C356.575 315.284 356.913 314.977 357.221 314.67C377.446 295.534 397.825 282.02 377.2 263.314Z" fill="#C9C7C5"/>
<path d="M254.71 152.125L217.702 118.522C217.702 118.522 213.276 128.474 209.187 143.77C221.636 154.459 239.095 158.298 254.71 152.125Z" fill="#C9C7C5"/>
<path d="M297.19 156.885C295.96 168.066 285.878 176.144 274.69 174.915C263.501 173.687 255.417 163.612 256.646 152.432C257.876 141.251 267.958 133.173 279.146 134.402C290.335 135.63 298.419 145.705 297.19 156.885Z" fill="#C9C7C5"/>
<path d="M273.706 163.796C276.903 157.039 280.13 150.282 283.45 143.616C284.249 141.988 281.821 140.576 281.022 142.203C277.702 148.899 274.474 155.657 271.278 162.383C270.478 164.011 272.907 165.424 273.706 163.796Z" fill="#3F3C36"/>
<path d="M252.036 231.861L280.161 300.08L269.649 208.579L252.036 231.861Z" fill="#3F3C36"/>
<path d="M204.362 165.885C200.581 178.509 197.599 192.024 196.37 205.17C196.278 206.276 197.63 206.859 198.491 206.368C203.071 203.88 207.65 201.423 212.23 198.935C213.829 198.075 212.415 195.648 210.816 196.508C206.237 198.996 201.657 201.453 197.077 203.941C197.784 204.34 198.491 204.74 199.198 205.17C200.396 192.3 203.378 179 207.097 166.653C207.589 164.902 204.884 164.134 204.362 165.885Z" fill="#3F3C36"/>
<path d="M227.507 176.727C231.964 171.629 238.142 168.956 244.935 169.264C246.749 169.356 246.749 166.53 244.935 166.469C237.466 166.131 230.458 169.141 225.54 174.762C224.341 176.082 226.308 178.079 227.507 176.727Z" fill="#3F3C36"/>
<path d="M220.898 216.412C227.907 220.62 236.544 213.586 233.347 205.876C232.671 204.218 229.935 204.955 230.642 206.613C232.825 211.927 227.384 217.026 222.312 213.954C220.776 213.033 219.362 215.46 220.898 216.412Z" fill="#3F3C36"/>
<path d="M225.724 168.526C226.401 170.124 227.077 171.721 227.784 173.318C228.091 174.024 229.105 174.178 229.72 173.809C230.458 173.41 230.519 172.581 230.212 171.874C229.536 170.277 228.86 168.68 228.153 167.083C227.845 166.376 226.831 166.223 226.216 166.591C225.478 166.991 225.417 167.82 225.724 168.526Z" fill="#3F3C36"/>
<path d="M237.435 167.697C236.821 165.793 236.175 163.888 235.56 161.984C235.007 160.264 232.271 161.001 232.855 162.721C233.47 164.625 234.116 166.53 234.73 168.434C235.284 170.154 237.989 169.417 237.435 167.697Z" fill="#3F3C36"/>
<path d="M243.952 167.298C243.706 166.008 244.044 164.626 244.905 163.612C246.073 162.23 244.075 160.233 242.907 161.615C241.37 163.458 240.786 165.67 241.247 168.035C241.585 169.816 244.29 169.079 243.952 167.298Z" fill="#3F3C36"/>
<path d="M223.942 143.678C228.306 141.988 233.009 143.125 236.052 146.688C237.22 148.07 239.218 146.074 238.05 144.691C234.392 140.453 228.429 138.917 223.204 140.944C221.544 141.62 222.251 144.323 223.942 143.678Z" fill="#3F3C36"/>
<path d="M245.673 369.343C230.151 382.919 203.163 398.676 185.181 409.212C191.052 409.672 203.562 413.604 200.888 418.518C198.214 423.433 192.527 426.197 187.241 428.624C178.019 432.832 168.798 437.07 159.577 441.278C155.488 443.152 151.216 445.056 146.667 445.149C142.118 445.241 137.199 442.937 136.001 438.852C135.232 436.303 143.531 426.873 141.257 425.307C139.074 423.801 128.285 431.204 125.888 432.433C101.083 445.364 76.2464 458.325 51.441 471.257C48.8898 472.577 46.1234 473.96 43.2648 473.591C40.191 473.192 37.8549 470.949 35.7648 468.799C-1.70458 430.313 -39.1739 391.796 -76.6125 353.31C-56.049 336.017 -31.9813 322.38 -6.10008 313.411C9.51471 307.974 26.0209 304.135 40.0373 295.688L245.673 369.343Z" fill="#ACA9A5"/>
<path d="M248.409 365.258C220.96 375.179 195.571 390.383 174.239 409.734C179.341 409.212 184.597 410.194 189.116 412.529C181.523 418.18 173.47 423.218 165.017 427.579C159.577 430.405 153.183 432.985 147.374 430.989C141.564 428.992 138.859 420.054 144.269 417.167C111.503 429.084 78.7671 441.002 46.0006 452.95C44.0334 453.657 41.9125 454.394 39.8531 453.902C37.7936 453.38 36.2875 451.721 34.935 450.155C-3.08762 405.771 -36.9299 356.013 -87.4014 325.082C-78.303 321.581 -69.1739 318.11 -60.0755 314.608C-73.8153 304.38 -45.9668 300.387 -61.6124 293.077C-19.1635 287.548 24.853 282.726 71.5437 298.206C71.5437 298.206 101.575 239.141 144.454 230.971L248.409 365.258Z" fill="white"/>
<path d="M125.734 211.62C99.1769 229.988 55.4678 260.519 39.0538 286.197C-5.48521 280.054 -51.4689 280.207 -96.5305 286.719C-43.139 324.898 4.2894 369.22 44.2793 418.242C45.3551 419.563 46.5231 420.945 48.2444 421.621C50.7342 422.603 53.7158 421.805 56.3899 421.068C91.2773 411.362 127.763 408.29 163.911 405.28C188.778 378.496 220.345 356.32 255.632 340.87L125.734 211.62Z" fill="white"/>
<mask id="mask2_21994_3625" style="mask-type:luminance" maskUnits="userSpaceOnUse" x="-97" y="211" width="353" height="212">
<path d="M125.734 211.62C99.1769 229.988 55.4678 260.519 39.0538 286.197C-5.48521 280.054 -51.4689 280.207 -96.5305 286.719C-43.139 324.898 4.2894 369.22 44.2793 418.242C45.3551 419.563 46.5231 420.945 48.2444 421.621C50.7342 422.603 53.7158 421.805 56.3899 421.068C91.2773 411.362 127.763 408.29 163.911 405.28C188.778 378.496 220.345 356.32 255.632 340.87L125.734 211.62Z" fill="white"/>
</mask>
<g mask="url(#mask2_21994_3625)">
<path d="M-31.305 319.861C-7.14515 311.414 18.3057 307.913 43.8488 309.51C45.6624 309.633 45.6624 306.807 43.8488 306.684C18.0906 305.056 -7.66769 308.619 -32.0427 317.127C-33.7641 317.742 -33.0264 320.445 -31.305 319.861Z" fill="#C9C7C5"/>
</g>
<mask id="mask3_21994_3625" style="mask-type:luminance" maskUnits="userSpaceOnUse" x="-97" y="211" width="353" height="212">
<path d="M125.734 211.62C99.1769 229.988 55.4678 260.519 39.0538 286.197C-5.48521 280.054 -51.4689 280.207 -96.5305 286.719C-43.139 324.898 4.2894 369.22 44.2793 418.242C45.3551 419.563 46.5231 420.945 48.2444 421.621C50.7342 422.603 53.7158 421.805 56.3899 421.068C91.2773 411.362 127.763 408.29 163.911 405.28C188.778 378.496 220.345 356.32 255.632 340.87L125.734 211.62Z" fill="white"/>
</mask>
<g mask="url(#mask3_21994_3625)">
<path d="M-20.6081 330.488C2.35301 321.581 27.1584 318.755 51.6257 317.864C53.4392 317.803 53.4392 314.977 51.6257 315.069C26.9432 315.991 1.83047 318.816 -21.3458 327.816C-23.0364 328.43 -22.2987 331.133 -20.6081 330.488Z" fill="#C9C7C5"/>
</g>
<mask id="mask4_21994_3625" style="mask-type:luminance" maskUnits="userSpaceOnUse" x="-97" y="211" width="353" height="212">
<path d="M125.734 211.62C99.1769 229.988 55.4678 260.519 39.0538 286.197C-5.48521 280.054 -51.4689 280.207 -96.5305 286.719C-43.139 324.898 4.2894 369.22 44.2793 418.242C45.3551 419.563 46.5231 420.945 48.2444 421.621C50.7342 422.603 53.7158 421.805 56.3899 421.068C91.2773 411.362 127.763 408.29 163.911 405.28C188.778 378.496 220.345 356.32 255.632 340.87L125.734 211.62Z" fill="white"/>
</mask>
<g mask="url(#mask4_21994_3625)">
<path d="M-3.85622 340.471C18.0598 331.103 41.9738 329.014 65.4575 327.11C67.2403 326.956 67.271 324.161 65.4575 324.284C41.4205 326.249 17.1377 328.43 -5.27016 338.044C-6.93 338.751 -5.48533 341.177 -3.85622 340.471Z" fill="#C9C7C5"/>
</g>
<mask id="mask5_21994_3625" style="mask-type:luminance" maskUnits="userSpaceOnUse" x="-97" y="211" width="353" height="212">
<path d="M125.734 211.62C99.1769 229.988 55.4678 260.519 39.0538 286.197C-5.48521 280.054 -51.4689 280.207 -96.5305 286.719C-43.139 324.898 4.2894 369.22 44.2793 418.242C45.3551 419.563 46.5231 420.945 48.2444 421.621C50.7342 422.603 53.7158 421.805 56.3899 421.068C91.2773 411.362 127.763 408.29 163.911 405.28C188.778 378.496 220.345 356.32 255.632 340.87L125.734 211.62Z" fill="white"/>
</mask>
<g mask="url(#mask5_21994_3625)">
<path d="M10.314 355.736C32.8755 347.351 56.3899 342.037 80.3654 339.949C82.1482 339.795 82.1789 336.969 80.3654 337.123C56.144 339.242 32.353 344.525 9.54556 353.003C7.88572 353.648 8.62343 356.351 10.314 355.736Z" fill="#C9C7C5"/>
</g>
<mask id="mask6_21994_3625" style="mask-type:luminance" maskUnits="userSpaceOnUse" x="-97" y="211" width="353" height="212">
<path d="M125.734 211.62C99.1769 229.988 55.4678 260.519 39.0538 286.197C-5.48521 280.054 -51.4689 280.207 -96.5305 286.719C-43.139 324.898 4.2894 369.22 44.2793 418.242C45.3551 419.563 46.5231 420.945 48.2444 421.621C50.7342 422.603 53.7158 421.805 56.3899 421.068C91.2773 411.362 127.763 408.29 163.911 405.28C188.778 378.496 220.345 356.32 255.632 340.87L125.734 211.62Z" fill="white"/>
</mask>
<g mask="url(#mask6_21994_3625)">
<path d="M26.2976 369.251C45.9083 362.033 65.8264 354.846 86.974 354.201C88.7876 354.139 88.7876 351.344 86.974 351.375C65.5805 352.02 45.4166 359.207 25.5599 366.517C23.8694 367.162 24.6071 369.896 26.2976 369.251Z" fill="#C9C7C5"/>
</g>
<mask id="mask7_21994_3625" style="mask-type:luminance" maskUnits="userSpaceOnUse" x="-97" y="211" width="353" height="212">
<path d="M125.734 211.62C99.1769 229.988 55.4678 260.519 39.0538 286.197C-5.48521 280.054 -51.4689 280.207 -96.5305 286.719C-43.139 324.898 4.2894 369.22 44.2793 418.242C45.3551 419.563 46.5231 420.945 48.2444 421.621C50.7342 422.603 53.7158 421.805 56.3899 421.068C91.2773 411.362 127.763 408.29 163.911 405.28C188.778 378.496 220.345 356.32 255.632 340.87L125.734 211.62Z" fill="white"/>
</mask>
<g mask="url(#mask7_21994_3625)">
<path d="M40.2218 382.397C47.5066 376.807 58.9718 376.285 67.7014 374.473C78.3366 372.261 89.1871 369.374 100.068 371.309C101.851 371.616 102.589 368.913 100.806 368.606C89.9555 366.671 79.351 369.19 68.7465 371.401C63.06 372.568 57.3427 373.736 51.6562 374.933C47.0148 375.916 42.6193 377.022 38.8079 379.971C37.3939 381.077 38.7771 383.503 40.2218 382.397Z" fill="#C9C7C5"/>
</g>
<mask id="mask8_21994_3625" style="mask-type:luminance" maskUnits="userSpaceOnUse" x="-97" y="211" width="353" height="212">
<path d="M125.734 211.62C99.1769 229.988 55.4678 260.519 39.0538 286.197C-5.48521 280.054 -51.4689 280.207 -96.5305 286.719C-43.139 324.898 4.2894 369.22 44.2793 418.242C45.3551 419.563 46.5231 420.945 48.2444 421.621C50.7342 422.603 53.7158 421.805 56.3899 421.068C91.2773 411.362 127.763 408.29 163.911 405.28C188.778 378.496 220.345 356.32 255.632 340.87L125.734 211.62Z" fill="white"/>
</mask>
<g mask="url(#mask8_21994_3625)">
<path d="M50.765 397.355C72.0048 386.298 95.8881 383.073 119.31 380.063C121.093 379.848 121.093 377.022 119.31 377.237C95.3348 380.308 71.0212 383.626 49.3204 394.929C47.7527 395.758 49.1667 398.185 50.765 397.355Z" fill="#C9C7C5"/>
</g>
<mask id="mask9_21994_3625" style="mask-type:luminance" maskUnits="userSpaceOnUse" x="-97" y="211" width="353" height="212">
<path d="M125.734 211.62C99.1769 229.988 55.4678 260.519 39.0538 286.197C-5.48521 280.054 -51.4689 280.207 -96.5305 286.719C-43.139 324.898 4.2894 369.22 44.2793 418.242C45.3551 419.563 46.5231 420.945 48.2444 421.621C50.7342 422.603 53.7158 421.805 56.3899 421.068C91.2773 411.362 127.763 408.29 163.911 405.28C188.778 378.496 220.345 356.32 255.632 340.87L125.734 211.62Z" fill="white"/>
</mask>
<g mask="url(#mask9_21994_3625)">
<path d="M74.4638 294.183C92.2917 275.201 111.257 255.389 136.892 247.618C138.614 247.096 137.876 244.393 136.155 244.915C110.027 252.84 90.6626 272.866 72.4658 292.217C71.2363 293.507 73.2035 295.503 74.4638 294.183Z" fill="#C9C7C5"/>
</g>
<mask id="mask10_21994_3625" style="mask-type:luminance" maskUnits="userSpaceOnUse" x="-97" y="211" width="353" height="212">
<path d="M125.734 211.62C99.1769 229.988 55.4678 260.519 39.0538 286.197C-5.48521 280.054 -51.4689 280.207 -96.5305 286.719C-43.139 324.898 4.2894 369.22 44.2793 418.242C45.3551 419.563 46.5231 420.945 48.2444 421.621C50.7342 422.603 53.7158 421.805 56.3899 421.068C91.2773 411.362 127.763 408.29 163.911 405.28C188.778 378.496 220.345 356.32 255.632 340.87L125.734 211.62Z" fill="white"/>
</mask>
<g mask="url(#mask10_21994_3625)">
<path d="M87.2506 302.845C101.421 282.726 124.167 271.699 145.806 261.41C147.435 260.642 146.021 258.215 144.392 258.983C122.23 269.519 99.3306 280.853 84.8224 301.401C83.7773 302.906 86.2056 304.319 87.2506 302.845Z" fill="#C9C7C5"/>
</g>
<mask id="mask11_21994_3625" style="mask-type:luminance" maskUnits="userSpaceOnUse" x="-97" y="211" width="353" height="212">
<path d="M125.734 211.62C99.1769 229.988 55.4678 260.519 39.0538 286.197C-5.48521 280.054 -51.4689 280.207 -96.5305 286.719C-43.139 324.898 4.2894 369.22 44.2793 418.242C45.3551 419.563 46.5231 420.945 48.2444 421.621C50.7342 422.603 53.7158 421.805 56.3899 421.068C91.2773 411.362 127.763 408.29 163.911 405.28C188.778 378.496 220.345 356.32 255.632 340.87L125.734 211.62Z" fill="white"/>
</mask>
<g mask="url(#mask11_21994_3625)">
<path d="M100.868 312.919C106.892 303.09 116.114 296.21 125.734 290.159C135.847 283.832 146.359 278.211 157.21 273.204C158.839 272.436 157.425 270.01 155.796 270.778C144.054 276.214 132.589 282.357 121.708 289.391C112.609 295.288 104.157 302.138 98.4393 311.506C97.4864 313.073 99.9147 314.486 100.868 312.919Z" fill="#C9C7C5"/>
</g>
<mask id="mask12_21994_3625" style="mask-type:luminance" maskUnits="userSpaceOnUse" x="-97" y="211" width="353" height="212">
<path d="M125.734 211.62C99.1769 229.988 55.4678 260.519 39.0538 286.197C-5.48521 280.054 -51.4689 280.207 -96.5305 286.719C-43.139 324.898 4.2894 369.22 44.2793 418.242C45.3551 419.563 46.5231 420.945 48.2444 421.621C50.7342 422.603 53.7158 421.805 56.3899 421.068C91.2773 411.362 127.763 408.29 163.911 405.28C188.778 378.496 220.345 356.32 255.632 340.87L125.734 211.62Z" fill="white"/>
</mask>
<g mask="url(#mask12_21994_3625)">
<path d="M111.134 323.485C130.437 308.035 151.769 295.35 174.546 285.675C176.206 284.968 174.761 282.542 173.132 283.248C150.11 293.016 128.655 305.885 109.136 321.489C107.722 322.625 109.72 324.622 111.134 323.485Z" fill="#C9C7C5"/>
</g>
<mask id="mask13_21994_3625" style="mask-type:luminance" maskUnits="userSpaceOnUse" x="-97" y="211" width="353" height="212">
<path d="M125.734 211.62C99.1769 229.988 55.4678 260.519 39.0538 286.197C-5.48521 280.054 -51.4689 280.207 -96.5305 286.719C-43.139 324.898 4.2894 369.22 44.2793 418.242C45.3551 419.563 46.5231 420.945 48.2444 421.621C50.7342 422.603 53.7158 421.805 56.3899 421.068C91.2773 411.362 127.763 408.29 163.911 405.28C188.778 378.496 220.345 356.32 255.632 340.87L125.734 211.62Z" fill="white"/>
</mask>
<g mask="url(#mask13_21994_3625)">
<path d="M123.429 336.447C141.503 323.577 160.13 310.554 182.138 305.609C183.89 305.21 183.153 302.507 181.4 302.906C159.146 307.912 140.304 321.028 122.015 334.02C120.54 335.065 121.923 337.491 123.429 336.447Z" fill="#C9C7C5"/>
</g>
<mask id="mask14_21994_3625" style="mask-type:luminance" maskUnits="userSpaceOnUse" x="-97" y="211" width="353" height="212">
<path d="M125.734 211.62C99.1769 229.988 55.4678 260.519 39.0538 286.197C-5.48521 280.054 -51.4689 280.207 -96.5305 286.719C-43.139 324.898 4.2894 369.22 44.2793 418.242C45.3551 419.563 46.5231 420.945 48.2444 421.621C50.7342 422.603 53.7158 421.805 56.3899 421.068C91.2773 411.362 127.763 408.29 163.911 405.28C188.778 378.496 220.345 356.32 255.632 340.87L125.734 211.62Z" fill="white"/>
</mask>
<g mask="url(#mask14_21994_3625)">
<path d="M142.21 349.409C160.437 335.556 180.909 325.113 202.825 318.509C204.546 317.987 203.808 315.284 202.087 315.806C179.925 322.472 159.208 332.976 140.796 346.982C139.351 348.057 140.765 350.515 142.21 349.409Z" fill="#C9C7C5"/>
</g>
<mask id="mask15_21994_3625" style="mask-type:luminance" maskUnits="userSpaceOnUse" x="-97" y="211" width="353" height="212">
<path d="M125.734 211.62C99.1769 229.988 55.4678 260.519 39.0538 286.197C-5.48521 280.054 -51.4689 280.207 -96.5305 286.719C-43.139 324.898 4.2894 369.22 44.2793 418.242C45.3551 419.563 46.5231 420.945 48.2444 421.621C50.7342 422.603 53.7158 421.805 56.3899 421.068C91.2773 411.362 127.763 408.29 163.911 405.28C188.778 378.496 220.345 356.32 255.632 340.87L125.734 211.62Z" fill="white"/>
</mask>
<g mask="url(#mask15_21994_3625)">
<path d="M-53.4362 303.183C-33.5795 300.295 -13.5693 298.483 6.47178 297.746C15.6316 297.408 24.8222 297.316 34.0128 297.439C40.8059 297.531 49.0129 299.65 54.2998 294.337C60.4473 288.163 66.0416 281.375 72.1891 275.201C78.0601 269.304 84.1154 263.621 90.3552 258.093C103.972 246.052 118.419 234.995 133.542 224.889C135.048 223.876 133.634 221.449 132.128 222.463C103.911 241.322 78.0293 263.621 55.3756 288.931C54.1153 290.344 52.9166 292.094 51.4104 293.262C48.8284 295.289 46.185 294.92 43.2034 294.828C38.9309 294.705 34.6276 294.613 30.355 294.582C20.5804 294.521 10.7751 294.705 1.00046 295.135C-17.4729 295.995 -35.8541 297.777 -54.1739 300.449C-55.9566 300.725 -55.1882 303.428 -53.4362 303.183Z" fill="#ACA9A5"/>
</g>
<path d="M173.193 414.832C168.859 416.092 164.525 417.474 160.161 418.641C159.7 418.764 157.702 419.593 157.271 419.317C156.042 418.426 157.548 416.982 158.04 416.491C159.638 414.832 163.48 414.433 165.663 414.31C167.015 414.218 167.015 412.129 165.663 412.191C162.927 412.344 150.632 415.139 153.675 420.054C154.689 421.713 157.21 421.528 158.839 421.221C163.849 420.207 168.829 418.334 173.747 416.89C175.038 416.491 174.484 414.464 173.193 414.832Z" fill="#3F3C36"/>
<path d="M125.95 415.877C99.2078 420.576 73.2958 428.869 48.7978 440.572C49.3511 440.633 49.9351 440.726 50.4884 440.787C14.9863 403.499 -22.2987 367.961 -61.2434 334.297C-62.5959 333.13 -64.5938 335.096 -63.2414 336.294C-24.2966 369.958 12.9883 405.495 48.4904 442.783C48.9515 443.275 49.6277 443.275 50.181 442.998C74.4639 431.388 100.161 423.249 126.657 418.58C128.501 418.273 127.732 415.57 125.95 415.877Z" fill="#3F3C36"/>
<path d="M153.152 393.792C122.261 354.323 84.9453 320.26 43.1726 292.586C42.0353 291.848 40.9902 293.661 42.0968 294.398C83.7157 321.98 120.878 355.951 151.677 395.267C152.476 396.373 153.982 394.868 153.152 393.792Z" fill="#3F3C36"/>
<path d="M-63.4569 314.824C-23.6514 347.259 14.6786 381.414 51.5024 417.198C52.7934 418.457 54.7914 416.461 53.5004 415.201C16.7073 379.418 -21.6535 345.263 -61.4589 312.827C-62.8421 311.691 -64.8708 313.687 -63.4569 314.824Z" fill="#3F3C36"/>
<path d="M54.2383 417.781C65.5498 416.122 76.892 414.863 88.2957 413.972C90.0785 413.819 90.1093 411.024 88.2957 411.147C76.6461 412.037 65.058 413.358 53.4698 415.047C51.7178 415.354 52.4555 418.057 54.2383 417.781Z" fill="#3F3C36"/>
<path d="M212.2 110.505C206.667 102.519 216.749 91.7689 222.251 86.5166C228.306 80.7421 235.591 76.2577 243.399 73.2783C258.091 67.6574 274.72 67.2274 289.413 73.1247C298.081 76.5956 305.827 80.865 315.417 78.3156C323.563 76.1348 331.032 71.2818 338.163 66.951C353.009 57.9207 368.163 49.4432 386.083 53.9277C413.747 60.8693 433.389 87.5609 462.774 89.5267C480.909 90.7553 500.766 77.6092 517.795 87.9909C530.182 95.5162 535.776 110.29 547.242 118.952C560.059 128.597 580.438 127.184 590.459 113.976C594.24 109 596.699 100.646 591.104 95.9462C587.078 92.5675 580.254 92.5061 577.641 97.5434C576.811 99.1406 579.24 100.584 580.069 98.9563C582.19 94.8712 588.369 95.9462 590.551 99.4785C593.809 104.669 589.444 111.611 585.602 115.082C579.086 121.01 569.68 123.529 561.043 122.023C545.705 119.321 538.297 104.454 528.799 93.8883C524.711 89.3117 519.916 85.2266 514.075 83.0458C506.299 80.1585 497.969 81.1414 490.038 82.7386C481.032 84.5508 472.057 87.3152 462.743 86.6702C455.458 86.1787 448.45 83.8137 441.903 80.6807C418.819 69.6539 397.21 46.4024 369.516 50.0575C353.378 52.1769 340.376 62.9887 326.483 70.4525C322.241 72.7254 317.815 74.9677 313.05 75.9505C306.934 77.2099 301.37 75.2441 295.837 72.8483C289.198 69.9611 282.681 67.5346 275.427 66.5824C259.782 64.5245 243.46 68.3331 230.151 76.7799C220.96 82.6158 201.011 99.3556 209.71 111.918C210.816 113.392 213.245 111.98 212.2 110.505Z" fill="#3F3C36"/>
<path d="M372.897 243.718C389.495 250.567 400.223 265.341 403.327 282.726C404.587 289.791 405.755 297.715 411.841 302.415C417.067 306.469 423.921 306.623 430.223 306.715C439.598 306.868 448.112 307.79 454.721 315.254C460.899 322.195 462.743 330.826 463.266 339.826C463.665 346.89 464.126 354.907 469.813 359.944C473.87 363.538 479.588 364.951 484.905 364.275C491.206 363.477 497.2 359.484 499.014 353.156C500.827 346.829 496.432 339.826 489.362 341.546C487.61 341.976 488.348 344.679 490.1 344.249C498.614 342.16 496.954 353.648 493.358 357.334C490.868 359.883 487.364 361.296 483.829 361.572C477.067 362.156 470.674 358.839 468.092 352.45C465.233 345.385 466.585 337.399 465.049 330.058C463.85 324.315 461.329 318.786 457.579 314.24C453.768 309.602 448.665 306.162 442.764 304.841C436.432 303.428 429.915 304.227 423.522 303.612C414.762 302.722 409.598 297.807 407.507 289.361C405.848 282.665 405.294 275.938 402.62 269.549C397.18 256.557 386.667 246.359 373.696 240.984C371.975 240.308 371.237 243.011 372.897 243.718Z" fill="#3F3C36"/>
<path d="M-8.25167 279.194C-14.7681 273.45 -11.7558 261.502 -4.47092 257.11C2.84467 252.717 12.189 253.977 20.3345 256.649C12.8037 252.81 10.6828 241.322 15.7238 234.534C20.7648 227.746 31.1542 226.487 38.2853 231.094C33.2136 228.114 32.1378 219.913 36.2566 215.798C40.0681 211.958 46.2157 212.235 51.5333 213.218C67.5477 216.228 82.7936 223.722 95.181 234.688C96.2568 235.64 97.3941 236.93 97.0252 238.312C96.7486 239.295 95.765 239.878 94.8736 240.308C82.1174 246.39 66.3797 245.53 54.1153 238.097C61.2464 240.616 68.3161 243.288 75.3551 246.052C80.8264 248.202 87.435 253.147 85.099 258.584C83.8387 261.533 80.4268 262.669 77.3838 263.437C60.8469 267.491 43.5415 268.413 26.605 266.171C39.5763 268.382 52.3018 272.437 64.228 278.242C66.1645 279.194 68.3161 280.484 68.685 282.634C69.1461 285.337 66.5641 287.456 64.1665 288.593C52.855 293.876 39.6378 291.757 27.3119 289.514C15.9697 287.456 1.33852 281.651 -8.25167 279.194Z" fill="#C9C7C5"/>
<path d="M12.4655 256.986C18.5516 260.764 24.8835 264.051 31.4614 266.877C33.1213 267.583 34.5352 265.157 32.8754 264.45C26.2975 261.655 19.9655 258.338 13.8794 254.56C12.3425 253.577 10.9286 256.004 12.4655 256.986Z" fill="#3F3C36"/>
<path d="M31.7689 228.974C47.7218 237.575 64.7813 243.748 82.5785 247.25C84.3613 247.588 85.099 244.885 83.3162 244.547C65.7649 241.076 48.9514 235.056 33.1829 226.548C31.5845 225.688 30.1706 228.114 31.7689 228.974Z" fill="#3F3C36"/>
<path d="M66.2566 244.731C67.4247 252.656 75.6931 257.908 83.3776 256.004C85.1296 255.574 84.3919 252.871 82.6399 253.301C76.3079 254.867 69.9452 250.352 68.9923 243.994C68.6849 242.182 65.98 242.95 66.2566 244.731Z" fill="#3F3C36"/>
<path d="M78.7055 226.978C81.6563 233.827 89.0027 238.004 96.4105 237.021C98.1933 236.776 98.1933 233.981 96.4105 234.226C89.8633 235.086 83.7465 231.646 81.1338 225.565C80.4268 223.875 77.9985 225.319 78.7055 226.978Z" fill="#3F3C36"/>
<path d="M48.3979 277.013C53.2852 282.757 60.693 285.214 68.0701 283.77C69.8529 283.432 69.0844 280.699 67.3324 281.067C60.8775 282.327 54.6377 280.023 50.3959 275.047C49.1971 273.665 47.2299 275.661 48.3979 277.013Z" fill="#3F3C36"/>
<path d="M409.659 515.21C404.649 509.128 335.489 424.999 330.448 418.887C305.489 388.601 276.319 362.647 246.564 337.061C216.441 311.168 172.333 304.073 136.462 320.014C134.833 320.721 130.99 324.683 130.068 326.188C128.132 329.321 130.652 333.682 134.126 334.942C137.599 336.201 141.441 335.28 144.945 334.205C150.847 332.423 156.749 330.242 162.896 330.335C169.044 330.427 175.652 333.406 177.927 339.119C176.144 345.569 167.107 345.661 160.499 344.494C136.615 340.225 112.056 334.973 87.8039 334.112C82.0866 333.928 74.6173 338.535 74.9862 344.249C75.2321 347.842 78.8899 350.084 82.1481 351.651C101.82 361.05 123.091 365.196 144.208 370.572C127.117 365.411 109.382 363.538 92.2916 358.378C87.6809 356.995 81.6256 354.354 76.8919 354.999C72.1276 355.644 67.394 358.961 66.687 363.722C66.0722 367.93 68.8079 372.046 72.3735 374.38C75.9391 376.715 81.5026 378.895 85.6522 379.848C104.648 384.24 123.275 390.321 141.226 397.939C126.41 392.994 111.103 389.523 95.6112 387.557C90.5088 386.912 84.6379 386.697 81.0723 390.414C76.8612 394.837 78.6747 402.546 83.1624 406.693C87.6502 410.839 93.8284 412.406 99.6994 414.095C145.468 427.241 179.894 432.279 260.95 555.969L409.659 515.21Z" fill="#C9C7C5"/>
<path d="M67.5784 365.442C75.0169 366.026 81.5333 370.848 84.2075 377.821C84.853 379.479 87.5579 378.773 86.9125 377.083C83.7465 368.852 76.3694 363.323 67.5784 362.647C65.7649 362.494 65.7956 365.289 67.5784 365.442Z" fill="#3F3C36"/>
<path d="M77.5991 344.31C84.3921 343.419 90.97 347.351 93.1216 353.924C93.6749 355.644 96.4106 354.907 95.8266 353.187C93.3061 345.539 85.6524 340.471 77.5991 341.515C75.8163 341.73 75.8163 344.556 77.5991 344.31Z" fill="#3F3C36"/>
<path d="M79.5354 395.85C85.2834 396.311 90.5703 399.321 93.9514 404.021C95.3654 405.986 96.4719 408.198 97.056 410.532C97.4863 412.222 97.2096 414.095 98.4392 415.385C98.9002 415.877 99.5765 415.846 100.13 415.6C100.744 415.324 101.021 414.925 101.144 414.28C101.267 413.665 101.052 412.99 100.499 412.682C100.437 412.652 100.345 412.59 100.283 412.56C98.6851 411.669 97.2711 414.095 98.8695 414.986C98.931 415.017 99.0232 415.078 99.0846 415.109C98.8695 414.587 98.6543 414.065 98.4392 413.512C98.5314 413.389 98.6236 413.266 98.7158 413.143C99.2691 413.205 99.8531 413.297 100.406 413.358C99.9146 412.836 99.9146 410.409 99.7301 409.734C99.4228 408.567 99.0232 407.43 98.5314 406.324C97.3633 403.714 95.6728 401.348 93.6441 399.383C89.7711 395.605 84.8838 393.424 79.5047 392.994C77.7219 392.902 77.7526 395.728 79.5354 395.85Z" fill="#3F3C36"/>
<path d="M132.189 326.864C136.646 326.864 140.95 326.618 144.546 323.67C147.497 321.274 149.126 317.803 148.081 314.087C147.589 312.336 144.884 313.073 145.376 314.824C146.298 318.049 144.177 320.844 141.472 322.41C138.644 324.069 135.386 324.038 132.189 324.038C130.376 324.038 130.376 326.864 132.189 326.864Z" fill="#3F3C36"/>
<path d="M111.902 390.905C122.599 394.561 132.958 398.984 143.04 404.082C144.638 404.912 146.083 402.485 144.454 401.656C134.187 396.403 123.583 391.919 112.64 388.172C110.949 387.619 110.212 390.322 111.902 390.905Z" fill="#3F3C36"/>
<path d="M103.818 361.235C121.984 366.118 140.181 371.002 158.347 375.886C160.099 376.346 160.837 373.644 159.085 373.183C140.919 368.299 122.722 363.415 104.556 358.532C102.804 358.04 102.066 360.743 103.818 361.235Z" fill="#3F3C36"/>
<path d="M154.505 427.733C155.857 424.324 157.763 421.191 160.161 418.426C161.329 417.075 159.361 415.078 158.163 416.43C155.427 419.594 153.306 423.095 151.769 426.965C151.124 428.685 153.859 429.392 154.505 427.733Z" fill="white"/>
<path d="M167.569 403.683C169.843 399.936 171.626 395.943 172.948 391.765C173.501 390.045 170.765 389.308 170.243 391.028C169.013 394.991 167.292 398.738 165.14 402.27C164.218 403.806 166.646 405.219 167.569 403.683Z" fill="white"/>
<path d="M177.65 375.793C179.648 371.401 181.646 367.009 183.613 362.616C184.351 360.988 181.923 359.545 181.185 361.203C179.187 365.596 177.189 369.988 175.222 374.35C174.484 376.008 176.882 377.421 177.65 375.793Z" fill="white"/>
<path d="M204.7 333.314C207.681 330.366 209.925 326.925 211.462 323.055C212.138 321.366 209.402 320.66 208.757 322.318C207.405 325.758 205.345 328.768 202.702 331.348C201.441 332.577 203.409 334.574 204.7 333.314Z" fill="white"/>
<path d="M222.435 265.863C220.499 263.467 216.933 263.099 214.505 265.034L123.46 338.751C123.367 338.812 123.306 338.904 123.245 338.966C127.732 340.409 132.251 341.515 136.769 342.467L221.605 273.788C224.003 271.853 224.403 268.29 222.435 265.863Z" fill="#3F3C36"/>
<path d="M192.989 305.64C203.286 297.377 213.583 289.084 223.849 280.822C224.618 280.207 224.218 279.071 223.573 278.61C221.144 276.89 219.362 275.047 217.702 272.59C216.687 271.116 214.259 272.498 215.274 274.003C217.179 276.798 219.392 279.071 222.159 281.037C222.067 280.299 221.974 279.562 221.882 278.825C211.585 287.088 201.288 295.381 191.021 303.643C189.577 304.81 191.575 306.776 192.989 305.64Z" fill="#3F3C36"/>
</svg>
