<svg width="375" height="511" viewBox="0 0 375 511" fill="none" xmlns="http://www.w3.org/2000/svg">
<path d="M207.499 70.0816C214.3 56.4054 224.628 44.9662 237.545 36.8571C238.813 36.0691 237.646 34.0609 236.377 34.8489C223.131 43.1614 212.473 54.8802 205.495 68.9122C204.81 70.2595 206.814 71.4288 207.499 70.0816Z" fill="white"/>
<path d="M285.454 248.152C287.89 214.495 265.255 181.271 236.631 167.163C233.611 165.688 230.413 168.815 231.505 172.17C232.342 174.712 233.915 177.178 235.59 179.212C237.823 181.932 242.112 185.974 244.573 189.914C245.842 191.947 244.066 194.566 241.858 193.905C223.613 188.363 206.966 178.5 206.966 178.5C198.719 172.577 188.594 167.341 181.133 165.841C177.429 165.104 174.815 169.527 177.023 172.806C180.296 177.687 184.534 183.279 187.376 184.423C182.834 183.711 178.418 178.78 173.521 180.432C171.491 181.118 169.968 183.076 169.943 185.389C169.866 192.202 181.666 192.99 184.204 199.192C181.108 198.379 174.536 197.184 171.465 196.32C171.389 196.294 171.313 196.269 171.211 196.244C164.715 194.49 161.746 204.505 167.938 207.276L198.389 220.927C201.967 222.528 200.495 228.273 196.663 227.638L178.063 224.562C175.779 224.231 173.495 225.502 172.683 227.816C171.11 232.213 176.287 234.755 180.118 236.255C190.497 240.322 198.719 250.338 201.13 261.904C201.586 264.091 212.904 433.037 213.031 435.197C215.721 476.887 274.289 501.163 297 456.5L285.454 248.152Z" fill="#C4B5FD"/>
<path d="M229.323 224.537C235.235 228.808 242.975 232.85 246.731 239.306C250.309 245.458 250.918 252.906 251.501 259.821C251.628 261.295 253.937 261.321 253.811 259.821C253.202 252.474 252.491 244.645 248.71 238.137C244.726 231.274 236.707 227.054 230.465 222.529C229.297 221.639 228.13 223.648 229.323 224.537Z" fill="#4F3422"/>
<path d="M243.94 172.222C240.946 171.84 238.485 169.883 237.038 167.265C236.302 165.968 234.298 167.138 235.033 168.434C236.911 171.815 240.109 174.052 243.94 174.535C245.438 174.738 245.412 172.4 243.94 172.222Z" fill="#4F3422"/>
<path d="M212.118 197.184C202.83 191.591 193.543 185.999 184.255 180.406C182.961 179.644 181.794 181.652 183.088 182.414C192.375 188.007 201.663 193.599 210.951 199.192C212.219 199.954 213.412 197.946 212.118 197.184Z" fill="#4F3422"/>
<path d="M208.007 209.081C198.922 205.573 190.117 201.48 181.565 196.828C180.246 196.116 179.078 198.125 180.398 198.836C189.127 203.59 198.136 207.759 207.398 211.318C208.794 211.852 209.377 209.615 208.007 209.081Z" fill="#4F3422"/>
<path d="M232.165 197.138C230.11 199.247 228.587 201.688 227.496 204.408C226.938 205.806 229.196 206.391 229.729 205.018C230.668 202.679 232.038 200.569 233.815 198.764C234.855 197.722 233.206 196.07 232.165 197.138Z" fill="white"/>
<path d="M221.584 209.437C219.858 211.42 218.158 213.403 216.433 215.36C215.468 216.479 217.092 218.131 218.082 217.013C219.808 215.03 221.508 213.047 223.233 211.09C224.198 209.946 222.548 208.293 221.584 209.437Z" fill="white"/>
<path d="M204.912 233.078C204.303 235.137 203.364 237.018 202.095 238.772C201.207 239.992 203.237 241.136 204.1 239.941C205.47 238.035 206.485 235.925 207.145 233.688C207.576 232.264 205.343 231.654 204.912 233.078Z" fill="white"/>
<path d="M173.927 257.912C188.898 230.077 182.275 192.989 163.218 169.932C161.213 167.492 157.255 168.967 156.925 172.246C156.671 174.737 157.077 177.457 157.711 179.846C158.574 183.024 160.68 188.133 161.289 192.455C161.594 194.692 159.082 196.243 157.458 194.819C143.983 183.075 133.528 168.229 133.528 168.229C128.732 159.993 122.084 151.63 116.298 147.486C113.43 145.427 109.472 148.198 110.106 151.859C111.045 157.299 112.517 163.704 114.522 165.764C110.918 163.425 109.04 157.502 104.219 157.019C102.214 156.816 100.159 157.934 99.2706 159.866C96.5807 165.662 106.376 170.873 106.173 177.152C103.838 175.271 98.687 171.737 96.3778 169.805C96.327 169.755 96.2509 169.704 96.2001 169.653C91.3279 165.662 84.9332 173.085 89.171 177.838L109.954 201.225C112.39 203.97 108.939 208.317 105.919 206.309L91.2011 196.548C89.374 195.378 86.9379 195.607 85.3646 197.259C82.3449 200.412 85.796 204.58 88.4858 207.326C95.8195 214.799 98.9915 226.518 96.6061 237.322C96.1494 239.381 -6.22928 463.42 -6.93981 465.301C-20.6174 501.957 33.484 526.462 69.9999 497L173.927 257.912Z" fill="#4F3422"/>
<path d="M134.874 216.096C138.326 222.095 143.502 228.654 144.162 235.695C144.796 242.279 142.436 248.863 140.305 254.964C139.797 256.387 142.056 256.998 142.538 255.574C144.898 248.838 147.334 241.644 146.344 234.424C145.355 227.357 140.356 220.977 136.879 214.927C136.143 213.63 134.139 214.8 134.874 216.096Z" fill="#4F3422"/>
<path d="M167.685 177.05C165.3 175.576 163.853 173.084 163.6 170.288C163.473 168.814 161.138 168.788 161.29 170.288C161.595 173.898 163.397 177.126 166.518 179.058C167.787 179.846 168.954 177.838 167.685 177.05Z" fill="#4F3422"/>
<path d="M130.891 186.198C125.08 177.86 119.295 169.497 113.484 161.159C112.646 159.939 110.616 161.108 111.479 162.329C117.29 170.666 123.076 179.03 128.887 187.368C129.724 188.588 131.729 187.444 130.891 186.198Z" fill="#4F3422"/>
<path d="M122.821 194.744C116.4 188.261 110.437 181.398 104.905 174.128C104.017 172.958 101.987 174.102 102.901 175.297C108.534 182.72 114.624 189.761 121.171 196.371C122.237 197.464 123.886 195.811 122.821 194.744Z" fill="#4F3422"/>
<path d="M147.993 193.73C145.43 194.747 143.146 196.196 141.141 198.128C140.076 199.17 141.7 200.823 142.791 199.78C144.466 198.153 146.42 196.832 148.602 195.993C149.998 195.433 149.389 193.171 147.993 193.73Z" fill="white"/>
<path d="M133.96 200.286C131.727 201.328 129.519 202.345 127.286 203.387C125.941 204.023 127.109 206.031 128.453 205.395C130.687 204.353 132.894 203.336 135.127 202.294C136.472 201.659 135.305 199.65 133.96 200.286Z" fill="white"/>
<path d="M110.868 213.938C109.548 215.463 108.051 216.734 106.3 217.751C105.006 218.488 106.173 220.496 107.468 219.759C109.371 218.666 111.071 217.268 112.492 215.59C113.482 214.446 111.832 212.794 110.868 213.938Z" fill="white"/>
<path d="M89.857 248.431C85.3401 247.287 81.1785 249.93 79.2499 254.074C77.1437 258.65 78.7424 263.759 81.1024 267.903C87.0657 278.401 96.5817 287.68 106.098 294.925C115.867 302.398 127.007 308.118 138.934 311.168C143.806 312.414 149.846 313.609 154.134 310.177C158.067 307.05 158.474 301.686 158.677 297.034C158.753 295.535 156.418 295.535 156.367 297.034C156.114 302.729 155.124 309.287 148.222 310.024C143.629 310.507 138.604 308.779 134.29 307.381C125.688 304.559 117.593 300.314 110.234 295.077C102.799 289.815 96.1249 283.511 90.2884 276.52C87.0403 272.631 83.4116 268.36 81.5845 263.556C79.5798 258.268 81.6606 248.71 89.248 250.642C90.6944 251.049 91.3035 248.812 89.857 248.431Z" fill="#EF8834"/>
<path d="M88.2081 257.126C80.773 257.1 69.1762 260.837 72.0944 270.7C73.2617 274.589 76.6875 277.36 79.9102 279.521C84.554 282.622 89.5784 285.291 94.679 287.579C114.32 296.4 137.031 299.934 158.347 296.273C162.433 295.587 167.127 294.112 168.98 289.994C170.477 286.69 169.665 282.724 166.442 280.868C165.148 280.131 163.981 282.139 165.275 282.876C168.447 284.707 167.685 289.028 165.249 291.138C163.346 292.816 160.707 293.451 158.271 293.909C153.17 294.849 147.867 295.18 142.69 295.256C132.591 295.383 122.491 294.112 112.747 291.519C102.977 288.927 93.5878 285.012 84.8839 279.851C80.9252 277.487 75.2918 274.462 74.1753 269.556C72.3482 261.473 82.5239 259.413 88.2081 259.439C89.7053 259.464 89.7053 257.126 88.2081 257.126Z" fill="#EF8834"/>
<path d="M303.573 30.1222C301.289 26.7159 298.929 23.7163 296.544 21.098C256.932 -30.3529 200.978 23.6654 184.738 62.457C182.149 58.3643 179.129 54.2208 178.419 53.0768C172.253 43.0612 165.579 33.6302 157.027 25.8516C148.983 18.5305 139.619 12.4296 129.621 8.81995C115.537 1.93102 99.8297 -0.458494 84.6803 5.41362C64.4811 13.2431 52.7575 33.7065 55.9548 56.7374C60.3702 88.64 79.5037 117.848 96.7085 143.37C117.618 174.434 175.831 221.741 175.831 221.741C176.719 221.284 177.582 220.826 178.47 220.343C179.459 221.182 179.992 221.639 179.992 221.639C211.839 205.726 242.848 178.959 266.727 148.378C288.068 121.051 326.157 63.7534 303.573 30.1222Z" fill="#A688FD"/>
<path d="M364.805 355.604C362.217 351.359 300.96 250.059 298.397 245.813C285.582 224.715 276.218 202.014 267.159 179.034C257.998 155.774 262.947 128.066 279.847 110.043C280.608 109.23 283.755 107.755 284.846 107.501C287.104 106.993 289.185 109.408 289.211 111.721C289.236 114.034 287.891 116.144 286.521 118C284.237 121.126 281.725 124.202 280.507 127.888C279.289 131.574 279.695 136.099 282.613 138.641C286.825 138.921 288.754 133.557 289.414 129.388C291.824 114.314 293.804 98.604 298.321 84.0127C299.386 80.5809 303.7 77.0729 306.999 78.471C309.08 79.3607 309.664 82.0044 309.917 84.2669C311.415 97.8922 309.486 111.416 308.293 125.092C308.775 113.882 311.338 102.925 311.821 91.715C311.947 88.69 311.643 84.5465 313.013 81.8519C314.384 79.1574 317.352 77.0221 320.296 77.5813C322.935 78.0897 324.813 80.5809 325.447 83.1738C326.107 85.7667 326.234 89.5289 325.955 92.198C324.635 104.4 324.382 116.729 325.194 128.981C325.346 119.144 326.437 109.331 328.493 99.7225C329.178 96.5703 330.269 93.0115 333.187 91.6642C336.689 90.0627 340.901 92.7573 342.424 96.2653C343.972 99.7733 343.591 103.79 343.388 107.628C341.713 137.573 343.769 186.076 456.286 333.183L364.805 355.604Z" fill="#4F3422"/>
<path d="M319.154 77.8646C317.784 83.2283 319.458 88.8462 323.696 92.4559C324.838 93.4219 326.488 91.795 325.346 90.8036C321.742 87.7023 320.22 83.1012 321.412 78.4747C321.768 77.0258 319.535 76.4157 319.154 77.8646Z" fill="white"/>
<path d="M304.638 79.1846C302.227 84.0399 303.597 89.7086 307.886 93.0133C309.079 93.9284 310.221 91.8948 309.053 91.005C305.831 88.5138 304.866 83.989 306.643 80.3539C307.302 79.0066 305.298 77.8373 304.638 79.1846Z" fill="white"/>
<path d="M334.734 91.2571C333.871 94.6126 334.176 98.0443 335.673 101.196C336.434 102.798 337.5 104.298 338.794 105.518C339.657 106.357 342.169 107.246 342.601 108.111C342.728 107.577 342.88 107.043 343.007 106.509C342.931 106.56 342.829 106.611 342.753 106.662C343.286 106.789 343.819 106.941 344.352 107.069C344.301 107.018 344.275 106.941 344.225 106.891C343.387 105.67 341.357 106.84 342.22 108.06C342.271 108.111 342.296 108.187 342.347 108.238C342.702 108.746 343.362 109 343.946 108.645C344.022 108.594 344.123 108.543 344.199 108.492C344.758 108.162 344.91 107.475 344.605 106.891C344.225 106.128 343.641 106.001 342.931 105.594C341.256 104.603 339.835 103.433 338.743 101.807C336.739 98.8578 336.13 95.2735 336.993 91.8163C337.348 90.4182 335.115 89.8081 334.734 91.2571Z" fill="white"/>
<path d="M325.016 110.021C324.991 117.316 325.473 124.561 326.463 131.806C326.666 133.28 328.899 132.645 328.696 131.196C327.757 124.18 327.3 117.138 327.326 110.046C327.351 108.521 325.016 108.521 325.016 110.021Z" fill="white"/>
<path d="M309.054 99.0599C308.191 110.88 307.328 122.701 306.44 134.521C306.339 136.021 308.648 135.996 308.775 134.521C309.638 122.701 310.5 110.88 311.389 99.0599C311.49 97.5855 309.155 97.5855 309.054 99.0599Z" fill="white"/>
<path d="M340.165 140.978C337.576 141.08 335.115 141.588 332.704 142.554C331.334 143.088 331.943 145.35 333.313 144.791C335.521 143.901 337.779 143.393 340.139 143.291C341.662 143.24 341.662 140.902 340.165 140.978Z" fill="white"/>
<path d="M322.631 143.825C320.094 144.359 317.556 144.588 314.968 144.511C313.471 144.46 313.471 146.799 314.968 146.824C317.759 146.901 320.525 146.647 323.24 146.062C324.687 145.757 324.078 143.52 322.631 143.825Z" fill="white"/>
<path d="M304.283 144.007C301.264 144.287 298.244 144.567 295.224 144.846C293.752 144.973 293.727 147.312 295.224 147.16C298.244 146.88 301.264 146.6 304.283 146.321C305.755 146.194 305.755 143.88 304.283 144.007Z" fill="white"/>
<path d="M272.614 151.555C270.584 152.546 268.402 153.106 266.144 153.207C264.646 153.284 264.646 155.597 266.144 155.521C268.833 155.394 271.371 154.733 273.782 153.538C275.127 152.902 273.959 150.894 272.614 151.555Z" fill="white"/>
<path d="M276.066 116.628C281.395 118.992 287.155 114.29 285.404 108.545C284.973 107.121 282.715 107.731 283.171 109.155C284.262 112.764 280.837 116.222 277.259 114.62C275.888 114.035 274.696 116.018 276.066 116.628Z" fill="white"/>
<path d="M409.232 436L308.851 274.589L391.145 225.934L503.448 392.4L409.232 436Z" fill="#C4B5FD"/>
<path d="M292.078 217.927C292.687 221.588 290.2 225.07 286.546 225.68C282.892 226.29 279.416 223.799 278.807 220.139C278.197 216.478 280.684 212.995 284.338 212.385C287.993 211.775 291.469 214.267 292.078 217.927Z" fill="white"/>
<path d="M305.781 215.082C306.39 218.742 303.903 222.225 300.249 222.835C296.595 223.445 293.118 220.954 292.509 217.293C291.9 213.633 294.387 210.15 298.041 209.54C301.721 208.93 305.172 211.396 305.781 215.082Z" fill="white"/>
<path d="M328.162 205.931C328.771 209.592 326.284 213.075 322.63 213.685C318.976 214.295 315.499 211.804 314.89 208.143C314.281 204.482 316.768 201 320.422 200.39C324.102 199.78 327.553 202.271 328.162 205.931Z" fill="white"/>
<path d="M347.398 197.819C348.007 201.479 345.52 204.962 341.866 205.572C338.212 206.182 334.735 203.691 334.126 200.03C333.517 196.37 336.004 192.887 339.658 192.277C343.338 191.667 346.789 194.133 347.398 197.819Z" fill="white"/>
<path d="M363.917 186.584C364.526 190.244 362.04 193.727 358.385 194.337C354.731 194.947 351.255 192.456 350.646 188.795C350.037 185.135 352.524 181.652 356.178 181.042C359.832 180.432 363.308 182.923 363.917 186.584Z" fill="white"/>
<path d="M1.37152 355.604C3.95986 351.359 65.2173 250.059 67.7803 245.813C80.5951 224.715 89.9588 202.014 99.018 179.034C108.179 155.774 103.23 128.066 86.3301 110.043C85.5688 109.23 82.4222 107.755 81.331 107.501C79.0726 106.993 76.9917 109.408 76.9664 111.721C76.941 114.034 78.2859 116.144 79.6562 118C81.94 121.126 84.4523 124.202 85.6703 127.888C86.8884 131.574 86.4823 136.099 83.5641 138.641C79.3517 138.921 77.4231 133.557 76.7634 129.388C74.3526 114.314 72.3733 98.604 67.8564 84.0127C66.7906 80.5809 62.4767 77.0729 59.1778 78.471C57.097 79.3607 56.5134 82.0044 56.2596 84.2669C54.7624 97.8922 56.691 111.416 57.8837 125.092C57.4015 113.882 54.8386 102.925 54.3564 91.715C54.2295 88.69 54.5341 84.5465 53.1638 81.8519C51.7935 79.1574 48.8245 77.0221 45.8809 77.5813C43.2418 78.0897 41.364 80.5809 40.7296 83.1738C40.0698 85.7667 39.9429 89.5289 40.222 92.198C41.5416 104.4 41.7953 116.729 40.9833 128.981C40.8311 119.144 39.7399 109.331 37.6845 99.7225C36.9993 96.5703 35.9081 93.0115 32.9899 91.6642C29.488 90.0627 25.2756 92.7573 23.7531 96.2653C22.2051 99.7733 22.5858 103.79 22.7888 107.628C24.4636 137.573 22.4081 186.076 -90.1086 333.183L1.37152 355.604Z" fill="#C0A091"/>
<path d="M44.7891 78.4747C45.9817 83.1012 44.4592 87.7023 40.8558 90.8036C39.7139 91.7696 41.3633 93.4219 42.5052 92.4559C46.743 88.8463 48.4178 83.2283 47.0475 77.8646C46.6669 76.4157 44.4084 77.0258 44.7891 78.4747Z" fill="#4F3422"/>
<path d="M59.532 80.3539C61.3337 83.9636 60.3441 88.5138 57.1213 91.005C55.954 91.8948 57.1213 93.9284 58.2886 93.0133C62.5518 89.7086 63.9221 84.0399 61.5367 79.1846C60.877 77.8373 58.8723 79.0066 59.532 80.3539Z" fill="#4F3422"/>
<path d="M29.1837 91.8691C30.0718 95.3263 29.4374 98.8852 27.4327 101.859C26.4431 103.334 25.1235 104.528 23.601 105.444C22.7889 105.927 22.0023 106.079 21.5455 106.943C21.2664 107.503 21.3932 108.189 21.9515 108.545C22.0276 108.596 22.1291 108.647 22.2053 108.697C22.7635 109.053 23.4487 108.799 23.804 108.291C23.8547 108.24 23.8801 108.164 23.9308 108.113C24.7936 106.893 22.7635 105.723 21.9261 106.943C21.8754 106.994 21.85 107.071 21.7993 107.121C22.3322 106.994 22.8651 106.842 23.3979 106.715C23.3218 106.664 23.2203 106.613 23.1442 106.562C23.2711 107.096 23.4233 107.63 23.5502 108.164C23.9816 107.299 26.4684 106.41 27.3566 105.571C28.6508 104.351 29.7165 102.851 30.4778 101.249C31.975 98.0971 32.2795 94.6654 31.4167 91.3099C31.0615 89.8101 28.8284 90.4202 29.1837 91.8691Z" fill="#4F3422"/>
<path d="M38.8522 110.018C38.8776 117.11 38.4462 124.152 37.4819 131.168C37.2789 132.642 39.512 133.252 39.715 131.778C40.6793 124.559 41.1868 117.314 41.1614 109.993C41.1614 108.518 38.8268 108.518 38.8522 110.018Z" fill="#4F3422"/>
<path d="M54.8126 99.0599C55.6754 110.88 56.5381 122.701 57.4263 134.521C57.5278 135.996 59.8624 136.021 59.7355 134.521C58.8727 122.701 58.0099 110.88 57.1218 99.0599C57.0203 97.5855 54.7111 97.5855 54.8126 99.0599Z" fill="#4F3422"/>
<path d="M26.0109 143.291C28.3709 143.393 30.6547 143.901 32.8624 144.791C34.2581 145.35 34.8418 143.088 33.4715 142.554C31.0608 141.588 28.5993 141.08 26.0109 140.978C24.5138 140.902 24.5138 143.24 26.0109 143.291Z" fill="white"/>
<path d="M42.9361 146.062C45.6767 146.647 48.4173 146.901 51.2086 146.824C52.7058 146.774 52.7058 144.46 51.2086 144.511C48.6203 144.588 46.0827 144.384 43.5451 143.825C42.0987 143.52 41.4896 145.757 42.9361 146.062Z" fill="white"/>
<path d="M61.8921 146.344C64.9118 146.624 67.9315 146.904 70.9513 147.183C72.4484 147.31 72.4231 144.997 70.9513 144.87C67.9315 144.59 64.9118 144.311 61.8921 144.031C60.4203 143.879 60.4203 146.192 61.8921 146.344Z" fill="white"/>
<path d="M92.3699 153.564C94.7807 154.759 97.3182 155.42 100.008 155.547C101.505 155.623 101.505 153.285 100.008 153.234C97.7496 153.132 95.5673 152.573 93.5372 151.581C92.2177 150.895 91.025 152.903 92.3699 153.564Z" fill="white"/>
<path d="M88.9429 114.618C85.3395 116.22 81.9137 112.763 83.0303 109.153C83.4617 107.729 81.2286 107.094 80.7972 108.543C79.0463 114.288 84.8066 118.991 90.1355 116.627C91.4805 116.017 90.2878 114.034 88.9429 114.618Z" fill="#4F3422"/>
<path d="M57.3248 274.589L-24.9693 225.934L-40.3978 247.974C-12.7635 264.802 14.4141 282.317 42.2007 298.662L57.3248 274.589Z" fill="white"/>
<path d="M-40.3722 248.001L-128 370.851L-40.3722 427.481L42.2265 298.689C14.4398 282.344 -12.7632 264.829 -40.3722 248.001Z" fill="#C4B5FD"/>
<path d="M25.4283 302.654C25.4283 305.247 23.3221 307.357 20.7337 307.357C18.1454 307.357 16.0392 305.247 16.0392 302.654C16.0392 300.061 18.1454 297.951 20.7337 297.951C23.3221 297.951 25.4283 300.061 25.4283 302.654Z" fill="#4F3422"/>
<path d="M16.0389 320.297C16.0389 322.89 13.9327 325 11.3443 325C8.75598 325 6.64978 322.89 6.64978 320.297C6.64978 317.704 8.75598 315.594 11.3443 315.594C13.9327 315.594 16.0389 317.704 16.0389 320.297Z" fill="#4F3422"/>
<path d="M207.422 62.836C213.614 48.8802 223.003 36.7547 234.981 27.2983C236.148 26.3832 234.499 24.7309 233.331 25.646C221.227 35.2041 211.66 47.533 205.418 61.6413C204.809 63.014 206.813 64.2087 207.422 62.836Z" fill="white"/>
<path d="M247.214 20.0288C251.35 18.1731 255.664 16.9275 260.13 16.2412C261.602 16.0124 260.967 13.7754 259.521 14.0042C254.826 14.716 250.36 16.0887 246.046 18.046C244.676 18.6307 245.843 20.6389 247.214 20.0288Z" fill="white"/>
<path d="M83.0817 28.3677C92.7246 18.7334 105.971 13.9035 119.547 15.022C121.044 15.1491 121.019 12.8104 119.547 12.7087C105.413 11.5394 91.4811 16.6743 81.4323 26.7154C80.3919 27.783 82.0413 29.4099 83.0817 28.3677Z" fill="white"/>
</svg>
